<svg id="Capa_1" enable-background="new 0 0 512 512" height="512" viewBox="0 0 512 512" width="512" xmlns="http://www.w3.org/2000/svg"><g><path d="m312.22 53.628h-229.788c-31.061 0-56.241 25.18-56.241 56.241v345.888c0 31.061 25.18 56.241 56.241 56.241h229.788c31.061 0 56.241-25.18 56.241-56.241v-345.887c0-31.061-25.18-56.242-56.241-56.242z" fill="#4a80aa"/><path d="m114.323 512h-31.892c-31.062 0-56.24-25.178-56.24-56.24v-345.89c0-31.062 25.178-56.24 56.24-56.24h31.892c-31.053 0-56.24 25.178-56.24 56.24v345.89c0 31.062 25.187 56.24 56.24 56.24z" fill="#407093"/><path d="m331.57 122.596v320.435c0 17.717-14.36 32.077-32.077 32.077h-204.339c-17.708 0-32.077-14.36-32.077-32.077v-320.435c0-17.717 14.369-32.077 32.077-32.077h31.33v1.512c0 18.316 14.849 33.165 33.165 33.165h75.359c18.316 0 33.165-14.849 33.165-33.165v-1.512h31.321c17.716 0 32.076 14.36 32.076 32.077z" fill="#f1f4f6"/><path d="m125.829 475.108h-30.675c-17.708 0-32.077-14.36-32.077-32.077v-320.435c0-17.717 14.369-32.077 32.077-32.077h30.675c-17.708 0-32.077 14.36-32.077 32.077v320.435c0 17.717 14.369 32.077 32.077 32.077z" fill="#f9f6f9"/><path d="m234.129 105.972h-73.607c-4.267 0-7.726-3.459-7.726-7.726s3.459-7.726 7.726-7.726h73.607c4.267 0 7.726 3.459 7.726 7.726s-3.459 7.726-7.726 7.726z" fill="#407093"/><g><path d="m155.333 258.148h-34.488c-15.444 0-27.964-12.52-27.964-27.964v-34.488c0-15.444 12.52-27.964 27.964-27.964h34.488c15.444 0 27.964 12.52 27.964 27.964v34.488c0 15.443-12.52 27.964-27.964 27.964z" fill="#e28086"/><path d="m139.465 258.143h-18.621c-15.439 0-27.963-12.515-27.963-27.964v-34.484c0-15.448 12.525-27.964 27.963-27.964h18.621c-15.448 0-27.963 12.515-27.963 27.964v34.484c0 15.449 12.515 27.964 27.963 27.964z" fill="#dd636e"/></g><g><path d="m273.807 258.148h-34.488c-15.444 0-27.964-12.52-27.964-27.964v-34.488c0-15.444 12.52-27.964 27.964-27.964h34.488c15.444 0 27.964 12.52 27.964 27.964v34.488c0 15.443-12.52 27.964-27.964 27.964z" fill="#ffe07d"/><path d="m257.939 258.143h-18.621c-15.439 0-27.963-12.515-27.963-27.964v-34.484c0-15.448 12.525-27.964 27.963-27.964h18.621c-15.448 0-27.963 12.515-27.963 27.964v34.484c0 15.449 12.515 27.964 27.963 27.964z" fill="#ffd064"/></g><g><path d="m415.367 227.759h-86.874c-38.904 0-70.442-31.538-70.442-70.442v-86.875c0-38.904 31.538-70.442 70.442-70.442h86.874c38.904 0 70.442 31.538 70.442 70.442v86.874c0 38.905-31.538 70.443-70.442 70.443z" fill="#bc95e2"/><path d="m375.396 227.747h-46.906c-38.891 0-70.44-31.526-70.44-70.44v-86.865c0-38.914 31.549-70.44 70.44-70.44h46.906c-38.914 0-70.44 31.526-70.44 70.44v86.865c0 38.914 31.526 70.44 70.44 70.44z" fill="#ac80dd"/></g><g><g><path d="m155.333 373.23h-34.488c-15.444 0-27.964-12.52-27.964-27.964v-34.488c0-15.444 12.52-27.964 27.964-27.964h34.488c15.444 0 27.964 12.52 27.964 27.964v34.488c0 15.444-12.52 27.964-27.964 27.964z" fill="#b3e59f"/><path d="m139.465 373.225h-18.621c-15.439 0-27.963-12.515-27.963-27.964v-34.484c0-15.448 12.525-27.963 27.963-27.963h18.621c-15.448 0-27.963 12.515-27.963 27.963v34.484c0 15.449 12.515 27.964 27.963 27.964z" fill="#95d6a4"/></g><g><path d="m273.807 373.23h-34.488c-15.444 0-27.964-12.52-27.964-27.964v-34.488c0-15.444 12.52-27.964 27.964-27.964h34.488c15.444 0 27.964 12.52 27.964 27.964v34.488c0 15.444-12.52 27.964-27.964 27.964z" fill="#bc95e2"/><path d="m257.939 373.225h-18.621c-15.439 0-27.963-12.515-27.963-27.964v-34.484c0-15.448 12.525-27.963 27.963-27.963h18.621c-15.448 0-27.963 12.515-27.963 27.963v34.484c0 15.449 12.515 27.964 27.963 27.964z" fill="#ac80dd"/></g></g><g fill="#407093"><path d="m333.133 164.954c-1.977 0-3.955-.755-5.463-2.263l-43.348-43.348c-3.018-3.017-3.018-7.909 0-10.927l43.348-43.348c3.017-3.017 7.909-3.017 10.927 0s3.018 7.909 0 10.927l-37.885 37.885 37.885 37.885c3.018 3.017 3.018 7.909 0 10.927-1.509 1.507-3.486 2.262-5.464 2.262z"/><path d="m410.727 164.954c-1.977 0-3.955-.755-5.463-2.263-3.018-3.017-3.018-7.909 0-10.927l37.885-37.885-37.885-37.885c-3.018-3.017-3.018-7.909 0-10.927 3.017-3.017 7.909-3.017 10.927 0l43.348 43.348c3.018 3.017 3.018 7.909 0 10.927l-43.348 43.348c-1.509 1.509-3.487 2.264-5.464 2.264z"/><path d="m351.397 193.731c-.679 0-1.368-.09-2.054-.279-4.114-1.132-6.532-5.384-5.4-9.499l39.677-144.247c1.132-4.115 5.383-6.533 9.499-5.4 4.114 1.132 6.532 5.384 5.4 9.499l-39.677 144.247c-.943 3.429-4.053 5.679-7.445 5.679z"/></g></g></svg>