<svg id="Capa_1" enable-background="new 0 0 512 512" height="512" viewBox="0 0 512 512" width="512" xmlns="http://www.w3.org/2000/svg" xmlns:xlink="http://www.w3.org/1999/xlink"><linearGradient id="SVGID_1_" gradientUnits="userSpaceOnUse" x1="256" x2="256" y1="481" y2="46"><stop offset="0" stop-color="#ffc2cc"/><stop offset="1" stop-color="#fff2f4"/></linearGradient><linearGradient id="SVGID_2_" gradientUnits="userSpaceOnUse" x1="256" x2="256" y1="496" y2="16"><stop offset="0" stop-color="#fd3a84"/><stop offset="1" stop-color="#ffa68d"/></linearGradient><g><g><g><path d="m482 46h-452v330h196c-6.301 0-12.299 4.2-14.099 10.199-31.908 96.342-30.901 91.013-30.901 94.801h150c0-3.788 1.349 2.573-30.901-94.801-1.8-5.999-7.798-10.199-14.099-10.199h196z" fill="url(#SVGID_1_)"/></g></g><g><g><path d="m497 16h-482c-8.401 0-15 6.599-15 15v360c0 8.399 6.599 15 15 15h482c8.401 0 15-6.601 15-15v-360c0-8.401-6.599-15-15-15zm-421 60h60c8.401 0 15 6.599 15 15 0 8.399-6.599 15-15 15h-60c-8.401 0-15-6.601-15-15 0-8.401 6.599-15 15-15zm0 60h60c8.401 0 15 6.599 15 15 0 8.399-6.599 15-15 15h-60c-8.401 0-15-6.601-15-15 0-8.401 6.599-15 15-15zm75 195c0 8.399-6.599 15-15 15h-60c-8.401 0-15-6.601-15-15v-120c0-8.401 6.599-15 15-15h30c8.401 0 15 6.599 15 15 0 8.399-6.599 15-15 15h-15v30h45c8.401 0 15 6.599 15 15zm195-105h-16.5c-2.1 9.6-5.7 18.3-11.1 26.4l11.699 11.698c6 5.7 6 15.3 0 21-4.89 5.438-14.46 6.543-20.999 0l-11.7-11.7c-8.1 5.402-16.8 9.002-26.4 11.102v16.5c0 8.399-6.599 15-15 15s-15-6.601-15-15v-16.5c-9.6-2.1-18.3-5.7-26.4-11.102l-11.7 11.7c-6.485 6.489-16.058 5.493-20.999 0-6-5.7-6-15.3 0-21l11.699-11.698c-5.4-8.101-9-16.8-11.1-26.4h-16.5c-8.401 0-15-6.601-15-15 0-8.401 6.599-15 15-15h16.5c2.1-9.6 5.7-18.3 11.1-26.4l-11.699-11.7c-6-5.7-6-15.3 0-21 5.698-6 15.298-6 20.999 0l11.7 11.701c8.101-5.4 16.8-9 26.4-11.1v-16.501c0-8.401 6.599-15 15-15s15 6.599 15 15v16.5c9.6 2.1 18.3 5.7 26.4 11.1l11.7-11.701c5.7-6 15.3-6 20.999 0 6 5.7 6 15.3 0 21l-11.699 11.7c5.4 8.101 9 16.8 11.1 26.4h16.5c8.401 0 15 6.599 15 15 0 8.4-6.599 15.001-15 15.001zm90 120h-60c-8.401 0-15-6.601-15-15 0-8.401 6.599-15 15-15h60c8.401 0 15 6.599 15 15 0 8.399-6.599 15-15 15zm0-60h-60c-8.401 0-15-6.601-15-15 0-8.401 6.599-15 15-15h60c8.401 0 15 6.599 15 15 0 8.399-6.599 15-15 15zm15-75c0 8.399-6.599 15-15 15h-30c-8.401 0-15-6.601-15-15 0-8.401 6.599-15 15-15h15v-30h-45c-8.401 0-15-6.601-15-15v-60c0-8.401 6.599-15 15-15h60c8.401 0 15 6.599 15 15zm-75 255h-240c-8.291 0-15 6.709-15 15s6.709 15 15 15h240c8.291 0 15-6.709 15-15s-6.709-15-15-15zm-120-270c-8.284 0-15 6.716-15 15s6.716 15 15 15 15-6.716 15-15-6.716-15-15-15z" fill="url(#SVGID_2_)"/></g></g></g></svg>