<svg id="Layer_1" height="512" viewBox="0 0 64 64" width="512" xmlns="http://www.w3.org/2000/svg" data-name="Layer 1"><path d="m5 61h54a2 2 0 0 0 2-2v-2h-58v2a2 2 0 0 0 2 2z" fill="#2199ea"/><path d="m59 59h-54a2 2 0 0 1 -2-2v2a2 2 0 0 0 2 2h54a2 2 0 0 0 2-2v-2a2 2 0 0 1 -2 2z" fill="#148cde"/><path d="m5 20h54v37h-54z" fill="#ccedff"/><path d="m5 20v37h4v-31h46v31h4v-37z" fill="#bde8ff"/><path d="m26.75 38 8.25-6h-22l8.25 6-8.25-6v6z" fill="#f77f1b"/><path d="m31 38v8h4v-14l-8.25 6z" fill="#f77f1b"/><g fill="#ff8e31"><path d="m31 38h-4.25-13.75-4l11 8z"/><path d="m20 46-11-8v14h22v-6-8z"/><path d="m57.124 8-8.327 10.754-12.797-4.609 3.449 11.855.462 1.588 21.124-6.145z"/><path d="m57.124 8-21.124 6.145 12.797 4.609z"/><path d="m13.072 6-2.841 9.5 14.928 4.464 2.841-9.5-9.087 3.196z"/><path d="m18.913 13.66 9.087-3.196-14.928-4.464z"/></g><path d="m9 38v2.182l11 8 11-8v-2.182l-11 8z" fill="#f77f1b"/><path d="m57.765 10.204-.641-2.204-8.327 10.754-12.797-4.609.545 1.874 13.072 4.708z" fill="#f77f1b"/><path d="m18.043 15.713 9.373-3.297.584-1.952-9.087 3.196-5.841-7.66-.686 2.294z" fill="#f77f1b"/><path d="m31 22h2v2h-2z"/><path d="m40.185 41.709a3.185 3.185 0 0 0 2.015 1.361 11.336 11.336 0 0 1 -4.616 3.715l.828 1.82a13.539 13.539 0 0 0 6.181-5.505 16.089 16.089 0 0 0 5.365-2.044c3.072-1.95 3.845-5.615 3.29-8.852l2.652 1.75 1.1-1.67-4.721-3.116a1 1 0 0 0 -1.385.284l-3.115 4.718 1.669 1.1 1.822-2.759c.449 2.551-.092 5.4-2.383 6.852a13.723 13.723 0 0 1 -3 1.362 3.655 3.655 0 0 0 -.771-4.4c-.846-.636-2.283-.814-3.778.591-1.07 1.006-2.261 3.112-1.153 4.793zm2.523-3.335a1.79 1.79 0 0 1 .959-.527.4.4 0 0 1 .249.079 1.8 1.8 0 0 1 .084 2.126c-.2.385-.4.766-.606 1.142a1.743 1.743 0 0 1 -1.532-.586c-.383-.57.259-1.682.846-2.234z"/><path d="m35 31h-22a1 1 0 0 0 -1 1v5h-3a1 1 0 0 0 -1 1v14a1 1 0 0 0 1 1h22a1 1 0 0 0 1-1v-5h3a1 1 0 0 0 1-1v-14a1 1 0 0 0 -1-1zm-7.075 8-7.925 5.764-7.925-5.764zm-6.35-2-5.5-4h15.85l-5.5 4zm-7.575-3.036 4.175 3.036h-4.175zm-4 17.036v-11.036l9.412 6.845a1 1 0 0 0 1.176 0l9.412-6.845v11.036zm22-6v-7a1 1 0 0 0 -1-1h-1.175l4.175-3.036v11.036z"/><path d="m61.314 22.4a1 1 0 0 0 .686-1.237l-3.915-13.442a1 1 0 0 0 -.479-.6.991.991 0 0 0 -.761-.083l-21.124 6.148a1 1 0 0 0 -.681 1.239l1.331 4.575h-9.88l2.467-8.25a1 1 0 0 0 -.671-1.244l-14.929-4.464a1 1 0 0 0 -1.244.672l-2.841 9.5a1 1 0 0 0 .671 1.244l8.501 2.542h-13.445a1 1 0 0 0 -1 1v36h-1a1 1 0 0 0 -1 1v2a3 3 0 0 0 3 3h54a3 3 0 0 0 3-3v-2a1 1 0 0 0 -1-1h-1v-33.215zm-36.547-11.859-5.5 1.935-3.536-4.637zm-11.3-2.373 4.65 6.1a1.005 1.005 0 0 0 1.128.337l7.234-2.545-1.991 6.66-13.012-3.892zm46.333 12.594-19.2 5.587-3.082-10.6 10.949 3.943a1 1 0 0 0 1.129-.328l7.126-9.2zm-20.568-6.515 15.219-4.428-6 7.747zm-2.279 6.753 1.164 4h-32.117v-4zm23.047 38a1 1 0 0 1 -1 1h-54a1 1 0 0 1 -1-1v-1h56zm-2-3h-52v-29h32.7l.253.867a1 1 0 0 0 .478.6 1.01 1.01 0 0 0 .482.123.985.985 0 0 0 .279-.04l17.808-5.184z"/><path d="m4 2h2v2h-2z"/><path d="m6 4h2v2h-2z"/><path d="m4 6h2v2h-2z"/><path d="m2 4h2v2h-2z"/><path d="m7 9h2v2h-2z"/><path d="m41 2h2v2h-2z"/><path d="m39 4h2v2h-2z"/><path d="m43 4h2v2h-2z"/><path d="m41 6h2v2h-2z"/><path d="m35 2h2v2h-2z"/><path d="m33 9h2v2h-2z"/></svg>