<svg height="512" viewBox="0 0 512 512" width="512" xmlns="http://www.w3.org/2000/svg"><g id="Flat" fill="#ff9800"><path d="m240 424a24.032 24.032 0 0 1 -24 24h-92c-33.08 0-60-27.09-60-60.38v-33.68l-7.03 7.03a24 24 0 1 1 -33.94-33.94l48-48a24 24 0 0 1 33.94 0l48 48a24 24 0 1 1 -33.94 33.94l-7.03-7.03v33.68a12.2 12.2 0 0 0 12 12.38h92a24.032 24.032 0 0 1 24 24z"/><path d="m448 296v92a60.073 60.073 0 0 1 -60 60h-34.06l7.03 7.03a24 24 0 1 1 -33.94 33.94l-48-48a24 24 0 0 1 0-33.94l48-48a24 24 0 1 1 33.94 33.94l-7.03 7.03h34.06a12.01 12.01 0 0 0 12-12v-92a24 24 0 0 1 48 0z"/><path d="m496 168a23.851 23.851 0 0 1 -7.03 16.97l-48 48a24 24 0 0 1 -33.94 0l-48-48a24 24 0 1 1 33.94-33.94l7.03 7.03v-34.06a12.01 12.01 0 0 0 -12-12h-92a24 24 0 0 1 0-48h92a60.073 60.073 0 0 1 60 60v34.06l7.03-7.03a23.989 23.989 0 0 1 40.97 16.97z"/><path d="m240 88a23.851 23.851 0 0 1 -7.03 16.97l-48 48a24 24 0 1 1 -33.94-33.94l7.03-7.03h-34.06a12.01 12.01 0 0 0 -12 12v92a24 24 0 0 1 -48 0v-92a60.073 60.073 0 0 1 60-60h34.06l-7.03-7.03a24 24 0 1 1 33.94-33.94l48 48a23.851 23.851 0 0 1 7.03 16.97z"/></g></svg>