<svg id="Layer_5" enable-background="new 0 0 64 64" height="512" viewBox="0 0 64 64" width="512" xmlns="http://www.w3.org/2000/svg"><path d="m60 40h-6-20v-6c0-1.1-.9-2-2-2h-8v-28c0-1.1.9-2 2-2h34c1.1 0 2 .9 2 2v34c0 1.1-.9 2-2 2z" fill="#e6e9ed"/><path d="m48 28v3c0 1.38-.56 2.63-1.46 3.54-.91.9-2.16 1.46-3.54 1.46-2.76 0-5-2.24-5-5v-3h3 4z" fill="#969faa"/><path d="m50.79 9.21c-1.98-1.99-4.71-3.21-7.74-3.21h-.1c-6.05 0-10.95 4.9-10.95 10.95 0 2.61.93 5.14 2.64 7.13l3.36 3.92h3 4 3l3.36-3.92c1.7-1.99 2.64-4.52 2.64-7.13 0-3.03-1.22-5.76-3.21-7.74z" fill="#fcd770"/><path d="m32 62h-28c-1.1 0-2-.9-2-2v-26c0-1.1.9-2 2-2h20 8c1.1 0 2 .9 2 2v6 10 10c0 1.1-.9 2-2 2z" fill="#f0d0b4"/><path d="m22 52v2c0 1.1-.45 2.1-1.17 2.83-.73.72-1.73 1.17-2.83 1.17-2.21 0-4-1.79-4-4v-2h4z" fill="#aab2bd"/><path d="m18 52h-4l-2.25-2.81c-1.13-1.42-1.75-3.18-1.75-5v-.19c0-2.21.9-4.21 2.34-5.66 1.45-1.44 3.45-2.34 5.66-2.34 4.42 0 8 3.58 8 8v.19c0 1.82-.62 3.58-1.75 5l-2.25 2.81z" fill="#ffeaa7"/><circle cx="18" cy="44" fill="#fcd770" r="2"/><path d="m43.051 5h-.102c-6.589 0-11.949 5.36-11.949 11.949 0 2.852 1.021 5.613 2.877 7.776l3.123 3.645v2.63c0 3.309 2.691 6 6 6s6-2.691 6-6v-2.63l3.123-3.645c1.856-2.163 2.877-4.924 2.877-7.776 0-6.589-5.36-11.949-11.949-11.949zm-.051 30c-2.206 0-4-1.794-4-4v-2h8v2c0 2.206-1.794 4-4 4zm-1.665-17h3.33l-.601 9h-2.129zm9.27 5.425-3.065 3.575h-1.471l.6-9h1.331c1.654 0 3-1.346 3-3s-1.346-3-3-3h-.129c-1.574 0-2.89 1.23-2.993 2.801l-.08 1.199h-3.596l-.08-1.198c-.103-1.572-1.419-2.802-2.993-2.802h-.129c-1.654 0-3 1.346-3 3s1.346 3 3 3h1.331l.6 9h-1.471l-3.065-3.575c-1.544-1.802-2.395-4.102-2.395-6.476 0-5.486 4.463-9.949 9.949-9.949h.102c5.486 0 9.949 4.463 9.949 9.949 0 2.374-.851 4.674-2.395 6.476zm-3.802-7.425.071-1.067c.034-.523.473-.933.997-.933h.129c.552 0 1 .448 1 1s-.448 1-1 1zm-7.606 0h-1.197c-.552 0-1-.448-1-1s.448-1 1-1h.129c.524 0 .963.41.997.934z"/><path d="m60 1h-34c-1.654 0-3 1.346-3 3v27h-19c-1.654 0-3 1.346-3 3v26c0 1.654 1.346 3 3 3h28c1.654 0 3-1.346 3-3v-19h25c1.654 0 3-1.346 3-3v-34c0-1.654-1.346-3-3-3zm-27 59c0 .552-.448 1-1 1h-28c-.552 0-1-.448-1-1v-26c0-.552.448-1 1-1h28c.552 0 1 .448 1 1zm28-22c0 .552-.448 1-1 1h-25v-5c0-1.654-1.346-3-3-3h-7v-27c0-.552.448-1 1-1h34c.552 0 1 .448 1 1z"/><path d="m18 35c-4.963 0-9 4.037-9 9v.193c0 2.036.7 4.032 1.972 5.623l2.028 2.535v1.649c0 2.757 2.243 5 5 5s5-2.243 5-5v-1.649l2.028-2.534c1.272-1.591 1.972-3.588 1.972-5.624v-.193c0-4.963-4.037-9-9-9zm0 22c-1.654 0-3-1.346-3-3v-1h6v1c0 1.654-1.346 3-3 3zm-1-13c0-.552.448-1 1-1s1 .448 1 1-.448 1-1 1-1-.448-1-1zm8 .193c0 1.583-.545 3.137-1.534 4.373l-1.947 2.434h-2.519v-4.184c1.161-.414 2-1.514 2-2.816 0-1.654-1.346-3-3-3s-3 1.346-3 3c0 1.302.839 2.402 2 2.816v4.184h-2.519l-1.946-2.434c-.99-1.236-1.535-2.79-1.535-4.373v-.193c0-3.859 3.141-7 7-7s7 3.141 7 7z"/><path d="m57 50c0 1.654-1.346 3-3 3h-18.414l6.707 6.707 1.414-1.414-3.293-3.293h13.586c2.757 0 5-2.243 5-5v-7h-2z"/><path d="m37 49h2v2h-2z"/><path d="m41 49h2v2h-2z"/><path d="m55 49v-6h-2v6h-8v2h8c1.103 0 2-.897 2-2z"/><path d="m3 20c0-1.654 1.346-3 3-3h16.414l-6.707-6.707-1.414 1.414 3.293 3.293h-11.586c-2.757 0-5 2.243-5 5v7h2z"/><path d="m19 19h2v2h-2z"/><path d="m15 19h2v2h-2z"/><path d="m5 21v6h2v-6h6v-2h-6c-1.103 0-2 .897-2 2z"/><path d="m5 57h2v2h-2z"/><path d="m5 53h2v2h-2z"/><path d="m5 49h2v2h-2z"/><path d="m29 43h2v2h-2z"/><path d="m29 39h2v2h-2z"/><path d="m29 35h2v2h-2z"/><path d="m57 27h2v2h-2z"/><path d="m57 35h2v2h-2z"/><path d="m57 31h2v2h-2z"/><path d="m27 9h2v2h-2z"/><path d="m27 13h2v2h-2z"/><path d="m27 5h2v2h-2z"/></svg>