<?xml version="1.0" standalone="no"?>
<!DOCTYPE svg PUBLIC "-//W3C//DTD SVG 20010904//EN"
 "http://www.w3.org/TR/2001/REC-SVG-20010904/DTD/svg10.dtd">
<svg version="1.0" xmlns="http://www.w3.org/2000/svg"
 width="300.000000pt" height="168.000000pt" viewBox="0 0 300.000000 168.000000"
 preserveAspectRatio="xMidYMid meet">

<g transform="translate(0.000000,168.000000) scale(0.100000,-0.100000)"
fill="#000000" stroke="none">
<path d="M0 840 l0 -840 1500 0 1500 0 0 200 c0 170 -2 202 -15 206 -8 4 -74
7 -145 8 -72 0 -130 4 -130 9 0 4 -9 7 -20 7 -11 0 -19 5 -18 11 2 6 -5 13
-15 14 -15 3 -16 1 -5 -12 11 -14 4 -15 -67 -10 -44 4 -88 6 -98 7 -10 0 -16
4 -12 9 6 10 56 7 74 -3 5 -4 12 -2 15 3 8 12 -9 17 -67 20 -28 2 -47 -2 -47
-8 0 -14 -37 -14 -45 -1 -3 6 4 10 17 11 23 1 23 1 -2 8 -14 5 -29 4 -34 -1
-18 -15 -39 -9 -32 10 6 16 5 16 -7 0 -9 -11 -18 -14 -28 -7 -12 7 -12 9 0 9
8 0 12 3 9 6 -4 3 -19 -2 -34 -12 l-27 -18 13 24 c12 23 12 24 -3 11 -14 -11
-17 -11 -17 0 0 12 -2 12 -9 0 -5 -7 -13 -11 -19 -7 -6 3 -14 1 -19 -6 -11
-18 -46 -20 -39 -2 3 8 -1 14 -9 14 -8 0 -15 5 -15 11 0 5 -5 7 -10 4 -6 -4
-8 -11 -5 -16 4 -5 1 -9 -4 -9 -6 0 -11 9 -11 19 0 10 -7 22 -16 25 -23 9 -27
8 -20 -9 3 -8 1 -15 -3 -15 -5 0 -11 5 -13 11 -2 6 -15 13 -28 14 -40 4 -41 5
-36 14 3 5 -1 12 -10 15 -12 4 -15 2 -10 -9 6 -17 -2 -19 -24 -5 -13 9 -13 10
0 10 13 0 13 2 1 9 -10 7 -19 5 -26 -6 -10 -14 -13 -13 -18 6 -4 19 -11 22
-43 19 -31 -2 -40 1 -49 19 -6 12 -24 32 -38 43 -23 18 -28 19 -33 7 -3 -9 2
-27 12 -42 9 -14 14 -28 10 -32 -3 -3 -6 -1 -6 7 0 9 -3 10 -13 1 -10 -8 -19
-7 -33 5 -18 15 -18 15 9 9 21 -4 28 -2 24 7 -2 7 -10 12 -16 10 -7 -1 -9 2
-5 9 4 7 -3 20 -17 31 -13 11 -19 17 -12 14 6 -4 15 -2 18 4 4 6 16 8 28 5 14
-4 17 -3 10 2 -18 13 16 39 69 54 47 14 229 19 221 7 -2 -5 0 -8 6 -8 5 0 13
5 16 10 4 6 11 8 16 4 16 -9 59 -12 64 -4 6 10 165 3 263 -10 40 -6 76 -10 79
-10 3 0 -1 8 -8 17 -11 13 -8 13 13 -2 26 -20 26 -20 5 -26 -20 -5 -19 -6 8
-12 63 -13 145 -18 145 -9 0 11 -24 22 -46 22 -9 0 -12 -5 -8 -11 5 -8 2 -9
-11 -2 -10 6 -27 8 -39 5 -12 -3 -18 -2 -15 1 12 14 87 16 139 3 30 -8 45 -14
32 -15 -14 -1 -21 -5 -16 -12 3 -6 17 -9 30 -6 14 2 27 0 30 -5 3 -5 14 -6 24
-3 11 3 28 2 38 -4 14 -7 23 -7 33 2 8 7 12 11 10 10 -7 -5 -31 19 -31 31 0 7
3 6 8 -2 5 -7 43 -18 85 -26 l77 -13 0 503 0 504 -1500 0 -1500 0 0 -840z
m170 660 c-14 -4 -34 -8 -45 -8 l-20 -1 20 9 c11 5 31 8 45 8 l25 0 -25 -8z
m1217 -466 c-3 -3 -12 -4 -19 -1 -8 3 -5 6 6 6 11 1 17 -2 13 -5z m150 -40
c-3 -3 -12 -4 -19 -1 -8 3 -5 6 6 6 11 1 17 -2 13 -5z m-44 -11 c-7 -2 -19 -2
-25 0 -7 3 -2 5 12 5 14 0 19 -2 13 -5z m-50 -10 c-7 -2 -19 -2 -25 0 -7 3 -2
5 12 5 14 0 19 -2 13 -5z m-44 -7 c-2 -2 -17 -6 -34 -10 -22 -5 -26 -4 -15 4
14 9 59 15 49 6z m-993 -163 c-10 -10 -19 5 -10 18 6 11 8 11 12 0 2 -7 1 -15
-2 -18z m-17 -73 c23 -31 23 -32 2 -18 -13 7 -31 30 -42 50 -24 47 -25 75 -1
31 9 -18 28 -46 41 -63z m1491 74 c0 -8 -4 -13 -9 -9 -5 3 -12 1 -16 -5 -3 -5
-26 -10 -50 -10 -24 0 -56 -5 -71 -10 -15 -6 -29 -8 -32 -6 -9 10 53 27 101
28 26 1 42 5 36 9 -8 5 -4 9 12 12 13 2 25 5 27 6 1 0 2 -6 2 -15z m517 -10
c-3 -3 -12 -4 -19 -1 -8 3 -5 6 6 6 11 1 17 -2 13 -5z m-784 -34 c-72 -19
-133 -45 -133 -57 0 -4 8 -16 18 -27 l17 -21 -24 20 -24 20 5 -27 c3 -15 1
-25 -4 -22 -9 6 -8 74 1 71 4 0 21 7 38 16 37 20 128 46 158 45 11 0 -12 -8
-52 -18z m-297 -15 c-11 -8 -25 -15 -30 -15 -6 0 -2 7 8 15 11 8 25 15 30 15
6 0 2 -7 -8 -15z m1241 9 c-3 -3 -12 -4 -19 -1 -8 3 -5 6 6 6 11 1 17 -2 13
-5z m177 -23 c3 -4 -4 -7 -14 -6 -27 2 -33 10 -10 12 11 1 22 -2 24 -6z
m-1154 -66 c0 -8 5 -15 12 -15 6 0 9 -2 6 -5 -3 -3 -13 -3 -22 1 -17 7 -22 34
-6 34 6 0 10 -7 10 -15z m140 -35 c0 -3 -9 -6 -20 -7 -11 -1 -18 2 -15 6 2 5
-4 11 -15 14 -11 3 -18 1 -14 -4 8 -14 -6 -11 -21 5 -9 9 -10 17 -4 23 7 7 23
4 50 -11 21 -11 39 -23 39 -26z m-900 30 c0 -5 -4 -10 -10 -10 -5 0 -10 5 -10
10 0 6 5 10 10 10 6 0 10 -4 10 -10z m42 -12 c-9 -9 -15 -9 -24 0 -9 9 -7 12
12 12 19 0 21 -3 12 -12z m373 2 c3 -5 1 -10 -4 -10 -6 0 -11 5 -11 10 0 6 2
10 4 10 3 0 8 -4 11 -10z m550 -10 c3 -6 -1 -7 -9 -4 -18 7 -21 14 -7 14 6 0
13 -4 16 -10z m-860 -15 c17 -8 23 -14 14 -14 -9 -1 -30 6 -45 14 -36 19 -10
19 31 0z m215 -5 c0 -5 -4 -10 -10 -10 -5 0 -10 5 -10 10 0 6 5 10 10 10 6 0
10 -4 10 -10z m365 -1 c4 -6 13 -8 19 -6 7 3 19 1 27 -4 10 -6 6 -9 -14 -9
-16 0 -35 7 -43 15 -9 8 -11 15 -5 15 5 0 13 -5 16 -11z m-515 -19 c0 -5 -4
-10 -9 -10 -6 0 -13 5 -16 10 -3 6 1 10 9 10 9 0 16 -4 16 -10z m627 -5 c0
-10 -6 -14 -14 -10 -8 3 -18 5 -21 6 -4 0 2 4 13 9 11 5 20 9 21 9 0 1 1 -6 1
-14z m-183 -40 c3 -8 1 -15 -4 -15 -6 0 -10 7 -10 15 0 8 2 15 4 15 2 0 6 -7
10 -15z m446 5 c0 -5 -4 -10 -10 -10 -5 0 -10 5 -10 10 0 6 5 10 10 10 6 0 10
-4 10 -10z m-740 -10 c0 -5 -4 -10 -10 -10 -5 0 -10 5 -10 10 0 6 5 10 10 10
6 0 10 -4 10 -10z m500 0 c0 -5 -4 -10 -10 -10 -5 0 -10 5 -10 10 0 6 5 10 10
10 6 0 10 -4 10 -10z m-50 -10 c0 -5 -4 -10 -10 -10 -5 0 -10 5 -10 10 0 6 5
10 10 10 6 0 10 -4 10 -10z m195 0 c-3 -5 -12 -10 -18 -10 -7 0 -6 4 3 10 19
12 23 12 15 0z m-305 -20 c0 -5 -4 -10 -10 -10 -5 0 -10 5 -10 10 0 6 5 10 10
10 6 0 10 -4 10 -10z m-693 -16 c2 -6 -3 -14 -11 -17 -16 -6 -66 13 -66 26 0
12 73 4 77 -9z m1037 -5 c-3 -5 -10 -7 -15 -3 -5 3 -7 10 -3 15 3 5 10 7 15 3
5 -3 7 -10 3 -15z m-509 -9 c3 -5 -1 -10 -9 -10 -9 0 -16 5 -16 10 0 6 4 10 9
10 6 0 13 -4 16 -10z m245 2 c0 -13 -12 -22 -22 -16 -10 6 -1 24 13 24 5 0 9
-4 9 -8z m-950 -52 c0 -5 -4 -10 -10 -10 -5 0 -10 5 -10 10 0 6 5 10 10 10 6
0 10 -4 10 -10z m1390 2 c0 -13 -12 -22 -22 -16 -10 6 -1 24 13 24 5 0 9 -4 9
-8z m-220 -32 c0 -5 -4 -10 -10 -10 -5 0 -10 5 -10 10 0 6 5 10 10 10 6 0 10
-4 10 -10z m910 0 c0 -5 -14 -8 -30 -6 -45 5 -49 16 -7 16 21 0 37 -4 37 -10z
m-260 -10 c0 -5 -4 -10 -10 -10 -5 0 -10 5 -10 10 0 6 5 10 10 10 6 0 10 -4
10 -10z m50 -8 c0 -10 -41 -35 -48 -28 -3 3 0 6 6 6 6 0 9 7 6 15 -4 10 0 15
15 15 12 0 21 -3 21 -8z m-1515 -11 c7 -12 -12 -24 -25 -16 -11 7 -4 25 10 25
5 0 11 -4 15 -9z m1935 -1 c0 -5 -4 -10 -10 -10 -5 0 -10 5 -10 10 0 6 5 10
10 10 6 0 10 -4 10 -10z m-340 -15 c0 -8 -4 -15 -10 -15 -5 0 -10 7 -10 15 0
8 5 15 10 15 6 0 10 -7 10 -15z m170 5 c0 -5 -7 -10 -15 -10 -8 0 -15 5 -15
10 0 6 7 10 15 10 8 0 15 -4 15 -10z m115 -28 c-3 -3 -11 0 -18 7 -9 10 -8 11
6 5 10 -3 15 -9 12 -12z m95 -2 c0 -5 -9 -10 -20 -10 -11 0 -20 5 -20 10 0 6
9 10 20 10 11 0 20 -4 20 -10z m-435 -20 c3 -5 1 -10 -4 -10 -6 0 -11 5 -11
10 0 6 2 10 4 10 3 0 8 -4 11 -10z m-68 -6 c-3 -3 -12 -4 -19 -1 -8 3 -5 6 6
6 11 1 17 -2 13 -5z m-1632 -34 c0 -18 -33 -26 -47 -12 -6 6 -7 15 -3 22 10
16 50 8 50 -10z m1870 10 c3 -5 -1 -10 -10 -10 -9 0 -13 5 -10 10 3 6 8 10 10
10 2 0 7 -4 10 -10z m305 -10 c0 -5 -4 -10 -10 -10 -5 0 -10 5 -10 10 0 6 5
10 10 10 6 0 10 -4 10 -10z m-500 -10 c0 -5 -4 -10 -10 -10 -5 0 -10 5 -10 10
0 6 5 10 10 10 6 0 10 -4 10 -10z m350 -5 c0 -8 -4 -15 -9 -15 -13 0 -22 16
-14 24 11 11 23 6 23 -9z m-622 -7 c16 -16 15 -38 -2 -38 -7 0 -16 11 -18 25
-6 27 1 32 20 13z m-2063 -8 c3 -5 1 -10 -4 -10 -6 0 -11 5 -11 10 0 6 2 10 4
10 3 0 8 -4 11 -10z m2220 0 c3 -5 -1 -10 -9 -10 -9 0 -16 5 -16 10 0 6 4 10
9 10 6 0 13 -4 16 -10z m610 -110 c3 -5 -1 -10 -9 -10 -9 0 -16 5 -16 10 0 6
4 10 9 10 6 0 13 -4 16 -10z m-1325 -49 c0 -18 -18 -21 -30 -6 -10 13 -9 15 9
15 11 0 21 -4 21 -9z m814 -12 c-3 -5 -10 -7 -15 -3 -5 3 -7 10 -3 15 3 5 10
7 15 3 5 -3 7 -10 3 -15z m-944 -59 c0 -5 -4 -10 -10 -10 -5 0 -10 5 -10 10 0
6 5 10 10 10 6 0 10 -4 10 -10z"/>
<path d="M2364 722 c5 -8 66 -4 66 4 0 2 -16 4 -36 4 -19 0 -33 -4 -30 -8z"/>
<path d="M2448 713 c6 -2 18 -2 25 0 6 3 1 5 -13 5 -14 0 -19 -2 -12 -5z"/>
<path d="M1916 682 c-3 -5 1 -9 9 -9 8 0 12 4 9 9 -3 4 -7 8 -9 8 -2 0 -6 -4
-9 -8z"/>
<path d="M2880 672 c-18 -6 72 -44 92 -39 9 3 19 0 22 -7 2 -6 5 -1 5 11 1 25
-28 38 -60 28 -14 -5 -19 -3 -15 3 6 11 -18 12 -44 4z"/>
<path d="M1865 610 c3 -5 14 -10 23 -10 15 0 15 2 2 10 -20 13 -33 13 -25 0z"/>
<path d="M2110 551 c0 -12 23 -27 40 -25 8 1 21 2 28 3 7 0 10 6 7 12 -4 6
-13 8 -21 5 -7 -3 -16 -1 -19 4 -8 12 -35 13 -35 1z"/>
<path d="M2210 522 c0 -5 7 -9 15 -9 8 0 12 4 9 9 -3 4 -9 8 -15 8 -5 0 -9 -4
-9 -8z"/>
<path d="M2780 437 c0 -7 9 -13 20 -13 11 0 20 1 20 3 0 1 -9 7 -20 13 -15 8
-20 8 -20 -3z"/>
<path d="M2915 442 c-13 -13 -2 -19 27 -16 42 5 45 11 8 16 -16 3 -32 2 -35 0z"/>
</g>
</svg>
