<?xml version="1.0" encoding="UTF-8"?>
<svg xmlns="http://www.w3.org/2000/svg" xmlns:xlink="http://www.w3.org/1999/xlink" width="1125pt" height="576pt" viewBox="0 0 1125 576" version="1.2">
<defs>
<clipPath id="clip1">
  <path d="M 851 0 L 1060 0 L 1060 576 L 851 576 Z M 851 0 "/>
</clipPath>
<clipPath id="clip2">
  <path d="M 1055.574219 -8.546875 L 1066.5625 584.601562 L 853.601562 588.546875 L 842.609375 -4.597656 Z M 1055.574219 -8.546875 "/>
</clipPath>
<clipPath id="clip3">
  <path d="M 1055.574219 -8.546875 L 1066.5625 584.601562 L 853.601562 588.546875 L 842.609375 -4.597656 Z M 1055.574219 -8.546875 "/>
</clipPath>
<clipPath id="clip4">
  <path d="M 1055.621094 -6.054688 L 1066.535156 582.941406 L 850.664062 586.941406 L 839.75 -2.054688 Z M 1055.621094 -6.054688 "/>
</clipPath>
<clipPath id="clip5">
  <path d="M 1055.621094 -6.054688 L 1066.519531 582.277344 L 853.441406 586.226562 L 842.539062 -2.105469 Z M 1055.621094 -6.054688 "/>
</clipPath>
<clipPath id="clip6">
  <path d="M 22 0 L 241 0 L 241 576 L 22 576 Z M 22 0 "/>
</clipPath>
<clipPath id="clip7">
  <path d="M 169.007812 -25.902344 L 302.859375 558.976562 L 114.964844 601.976562 L -18.882812 17.09375 Z M 169.007812 -25.902344 "/>
</clipPath>
<clipPath id="clip8">
  <path d="M 169.007812 -25.902344 L 302.859375 558.976562 L 114.964844 601.976562 L -18.882812 17.09375 Z M 169.007812 -25.902344 "/>
</clipPath>
<clipPath id="clip9">
  <path d="M 141.675781 416.390625 C 135.132812 387.792969 153.9375 323.800781 164.417969 288.386719 C 166.683594 280.722656 168.59375 274.144531 169.898438 269.316406 C 177.335938 241.242188 168.027344 226.464844 156.28125 207.613281 C 145.636719 190.519531 133.566406 171.136719 130.796875 136.644531 C 128.703125 111.253906 141.167969 99.441406 153.242188 88.125 C 161.71875 79.941406 169.824219 72.351562 172.75 60.105469 C 180.316406 27.773438 162.976562 15.636719 146.21875 3.871094 C 137.851562 -1.964844 129.953125 -7.503906 124.929688 -15.414062 L 125.53125 -15.855469 C 130.511719 -8.136719 138.410156 -2.59375 146.660156 3.167969 C 163.554688 15.101562 181.15625 27.480469 173.484375 60.238281 C 170.601562 72.675781 162.328125 80.40625 153.757812 88.609375 C 141.871094 99.886719 129.574219 111.558594 131.582031 136.5625 C 134.308594 170.867188 146.359375 190.152344 156.976562 207.148438 C 168.382812 225.375 178.101562 241.070312 170.632812 269.453125 C 169.421875 274.257812 167.417969 280.855469 165.152344 288.523438 C 154.03125 326.398438 133.367188 396.753906 144.144531 421.464844 C 146.464844 426.773438 148.730469 432.292969 151.160156 438.078125 C 162.097656 464.363281 174.460938 494.246094 194.136719 512.1875 C 196.167969 514.039062 198.179688 515.792969 200.207031 517.644531 C 217.4375 533.230469 235.25 549.183594 240.308594 571.277344 C 240.375 571.5625 240.4375 571.851562 240.527344 572.234375 L 239.761719 572.410156 C 239.699219 572.121094 239.632812 571.835938 239.566406 571.546875 C 234.554688 549.644531 216.855469 533.765625 199.671875 518.371094 C 197.640625 516.519531 195.632812 514.765625 193.601562 512.914062 C 173.785156 494.804688 161.421875 464.917969 150.367188 438.5625 C 147.9375 432.777344 145.671875 427.253906 143.351562 421.949219 C 142.742188 420.175781 142.136719 418.402344 141.675781 416.390625 Z M 140.347656 405.320312 C 141.167969 408.457031 142.007812 411.6875 142.867188 415.011719 C 151.59375 448.75 161.539062 486.9375 187.546875 512.792969 C 191.71875 516.972656 196.386719 521.136719 200.820312 525.152344 C 216.160156 539.058594 232.105469 553.425781 236.546875 572.84375 C 236.570312 572.9375 236.589844 573.035156 236.613281 573.128906 L 237.375 572.953125 C 237.355469 572.859375 237.332031 572.761719 237.3125 572.667969 C 232.800781 552.964844 216.855469 538.597656 201.402344 524.617188 C 196.96875 520.601562 192.394531 516.414062 188.125 512.257812 C 162.257812 486.570312 152.3125 448.382812 143.632812 414.835938 C 142.769531 411.511719 141.929688 408.28125 141.113281 405.148438 C 140.980469 404.574219 140.871094 404.09375 140.742188 403.519531 C 133.101562 370.140625 150.574219 292.863281 157.1875 263.367188 L 157.3125 263.039062 C 163.523438 235.75 155.558594 218.949219 146.316406 199.625 C 138.03125 182.296875 128.742188 162.78125 126.914062 131.089844 C 125.558594 108.046875 137.113281 96.644531 148.328125 85.523438 C 156.613281 77.386719 164.390625 69.667969 167.070312 57.679688 C 173.902344 26.523438 156.054688 14.804688 138.695312 3.480469 C 130.4375 -1.878906 122.628906 -7.035156 117.800781 -14.085938 L 117.195312 -13.644531 C 122.164062 -6.425781 129.953125 -1.363281 138.230469 4.089844 C 155.355469 15.269531 172.972656 26.839844 166.148438 57.589844 C 163.632812 69.4375 155.835938 77.0625 147.648438 85.175781 C 136.335938 96.320312 124.613281 107.863281 126.054688 131.285156 C 127.90625 163.074219 137.332031 182.757812 145.523438 200.109375 C 154.742188 219.335938 162.664062 235.945312 156.503906 263.023438 L 156.378906 263.351562 C 149.769531 292.847656 132.222656 370.242188 139.902344 403.8125 C 140.011719 404.292969 140.144531 404.867188 140.347656 405.320312 Z M 181.4375 512.882812 C 186.882812 518.679688 193.144531 524.09375 199.097656 529.472656 C 213.835938 542.507812 229.0625 555.933594 233.316406 574.085938 L 234.078125 573.910156 C 229.761719 555.472656 214.511719 541.949219 199.65625 528.84375 C 193.632812 523.578125 187.441406 518.050781 182.019531 512.34375 C 149.503906 477.8125 143.457031 431.183594 138.152344 390.019531 L 137.964844 388.757812 C 133.242188 353.199219 138.386719 285.6875 143.871094 256.550781 C 148.828125 230.355469 142.757812 212.617188 135.769531 192.175781 C 129.746094 174.628906 122.984375 154.738281 122.054688 125.660156 C 121.445312 104.558594 132.257812 93.429688 142.734375 82.578125 C 150.613281 74.433594 158.101562 66.777344 160.492188 55.261719 C 166.703125 25.355469 147.6875 13.800781 130.78125 3.578125 C 122.539062 -1.277344 114.835938 -5.957031 110.164062 -12.335938 L 109.5625 -11.898438 C 114.257812 -5.421875 122.074219 -0.667969 130.339844 4.285156 C 147.832031 14.875 165.910156 25.835938 159.777344 55.222656 C 157.421875 66.433594 150.027344 74.0625 142.242188 82.1875 C 131.671875 93.058594 120.710938 104.425781 121.386719 125.8125 C 122.335938 154.984375 129.121094 174.972656 135.144531 192.519531 C 142.113281 212.867188 148.160156 230.507812 143.257812 256.492188 C 137.769531 285.628906 132.648438 353.234375 137.390625 388.886719 L 137.582031 390.152344 C 139.644531 406.1875 141.808594 423.105469 145.617188 439.75 C 151.519531 465.976562 161.515625 491.671875 181.4375 512.882812 Z M 175.332031 512.96875 C 181.539062 519.902344 189.136719 526.320312 196.378906 532.511719 C 211.589844 545.4375 225.941406 557.65625 230.210938 574.996094 L 230.972656 574.824219 C 229.0625 566.90625 224.816406 559.320312 217.910156 551.539062 C 211.796875 544.585938 204.203125 538.171875 196.863281 532 C 189.621094 525.804688 182.140625 519.464844 175.933594 512.53125 C 140.015625 472.335938 136.050781 423.417969 134.859375 372.554688 C 134.601562 359.128906 133.378906 343.703125 132.175781 327.472656 C 130.050781 298.871094 127.800781 269.289062 130.59375 250.328125 C 134.261719 225.535156 130.304688 206.914062 125.664062 185.328125 C 121.785156 167.492188 117.429688 147.152344 117.453125 120.472656 C 117.492188 101.335938 127.566406 90.476562 137.296875 79.894531 C 144.65625 71.667969 151.742188 64.007812 153.953125 53.035156 C 159.476562 24.492188 139.898438 13.570312 122.625 3.9375 C 114.566406 -0.5625 106.953125 -4.859375 102.453125 -10.472656 L 101.851562 -10.03125 C 106.394531 -4.226562 114.101562 0.046875 122.183594 4.640625 C 139.246094 14.222656 158.585938 24.996094 153.144531 53.015625 C 150.988281 63.777344 143.996094 71.417969 136.5 79.472656 C 126.667969 90.078125 116.449219 101.171875 116.453125 120.5 C 116.453125 147.273438 120.808594 167.617188 124.710938 185.546875 C 129.328125 207.035156 133.359375 225.539062 129.671875 250.238281 C 126.878906 269.199219 129.148438 298.875 131.296875 327.574219 C 132.5 343.804688 133.71875 359.230469 133.980469 372.65625 C 134.539062 397.492188 135.703125 421.886719 141 445.03125 C 146.75 469.285156 156.824219 492.242188 175.332031 512.96875 Z M 169.203125 512.964844 C 176.054688 520.957031 184.707031 528.035156 193.101562 534.871094 C 208.300781 547.296875 222.730469 558.992188 226.867188 575.761719 L 227.632812 575.585938 C 223.332031 558.554688 208.882812 546.761719 193.566406 534.261719 C 185.167969 527.425781 176.539062 520.445312 169.78125 512.429688 C 128.113281 463.785156 128.289062 406.167969 131.691406 356.070312 C 133.121094 335.109375 128.285156 313.96875 123.695312 293.480469 C 119.515625 275.210938 115.667969 257.972656 117.136719 243.746094 C 119.625 220.832031 117.640625 200.75 115.585938 179.480469 C 113.640625 159.996094 111.632812 139.820312 112.644531 114.828125 C 113.261719 97.777344 122.613281 87.28125 131.53125 77.085938 C 138.796875 68.882812 145.550781 61.097656 147.5625 50.570312 C 152.488281 23.371094 132.257812 13.105469 114.5 3.984375 C 106.550781 -0.0351562 99.140625 -3.875 94.890625 -8.839844 L 94.308594 -8.304688 C 98.582031 -3.246094 106.179688 0.550781 114.15625 4.667969 C 131.679688 13.640625 151.601562 23.878906 146.734375 50.457031 C 144.890625 60.84375 138.113281 68.535156 130.921875 76.621094 C 121.835938 86.957031 112.507812 97.546875 111.835938 114.8125 C 110.847656 139.898438 112.855469 160.074219 114.800781 179.558594 C 116.929688 200.714844 118.914062 220.792969 116.421875 243.707031 C 114.882812 258.050781 118.84375 275.363281 122.929688 293.65625 C 127.59375 314.027344 132.335938 335.1875 130.957031 355.9375 C 129.03125 383.957031 128.152344 414.355469 134.980469 444.195312 C 140.410156 467.917969 150.691406 491.332031 169.203125 512.964844 Z M 163.074219 512.957031 C 170.453125 521.9375 180.117188 529.488281 189.523438 536.796875 C 204.921875 548.777344 219.382812 560.164062 223.71875 576.484375 L 224.484375 576.308594 C 220.078125 559.699219 205.523438 548.335938 190.082031 536.167969 C 180.769531 528.835938 171.105469 521.285156 163.75 512.398438 C 142.910156 487.171875 130.578125 459.195312 125.984375 426.828125 C 121.667969 396.109375 124.902344 365.472656 128.636719 339.65625 C 132.097656 315.714844 123.058594 295.539062 115.164062 277.714844 C 108.953125 263.738281 103.011719 250.503906 103.910156 237.3125 C 105.070312 219.128906 105.25 201.472656 105.402344 182.816406 C 105.566406 159.832031 105.765625 136.128906 107.976562 109.351562 C 109.171875 94.382812 117.6875 84.183594 125.90625 74.449219 C 132.839844 66.117188 139.382812 58.28125 141.078125 48.128906 C 145.3125 22.296875 123.605469 12.167969 106.183594 4.074219 C 98.53125 0.492188 91.234375 -2.871094 87.253906 -7.09375 L 86.769531 -6.582031 C 90.867188 -2.285156 98.164062 1.078125 105.933594 4.734375 C 123.941406 13.195312 144.496094 22.683594 140.269531 48.113281 C 138.628906 58.050781 132.082031 65.890625 125.222656 74.101562 C 116.953125 84.046875 108.34375 94.273438 107.09375 109.453125 C 104.886719 136.230469 104.683594 159.929688 104.519531 182.917969 C 104.371094 201.574219 104.285156 219.207031 103.027344 237.414062 C 102.152344 250.699219 108.113281 264.03125 114.371094 278.199219 C 122.246094 295.925781 131.261719 316.007812 127.757812 339.757812 C 124.042969 365.671875 120.710938 396.328125 125.050781 427.140625 C 125.757812 432.417969 126.726562 437.53125 127.863281 442.503906 C 134.007812 468.476562 145.550781 491.703125 163.074219 512.957031 Z M 156.964844 513.046875 C 164.734375 522.84375 175.503906 530.847656 185.808594 538.554688 C 201.449219 550.273438 216.128906 561.308594 220.515625 577.417969 L 221.1875 577.265625 C 216.753906 560.964844 201.933594 549.761719 186.195312 538.0625 C 175.894531 530.355469 165.21875 522.332031 157.472656 512.628906 C 107.476562 449.988281 112.527344 384.714844 125.4375 323.480469 C 130.933594 297.460938 118.007812 280.488281 106.660156 265.570312 C 98.183594 254.425781 90.167969 243.980469 90.441406 231.132812 C 91.257812 193 97.207031 147.449219 103.183594 104.210938 C 104.957031 91.324219 112.582031 81.625 119.984375 72.28125 C 126.777344 63.78125 133.066406 55.699219 134.539062 45.898438 C 138.132812 21.222656 115.699219 11.863281 97.601562 4.328125 C 89.945312 1.148438 83.277344 -1.652344 79.566406 -5.132812 L 79.082031 -4.621094 C 82.90625 -1.066406 89.578125 1.734375 97.351562 4.988281 C 115.140625 12.492188 137.339844 21.707031 133.828125 45.863281 C 132.429688 55.542969 126.097656 63.433594 119.398438 71.914062 C 111.921875 81.375 104.199219 91.09375 102.375 104.191406 C 96.421875 147.53125 90.449219 192.984375 89.65625 231.214844 C 89.328125 244.273438 97.484375 254.886719 105.984375 266.128906 C 117.3125 280.949219 130.097656 297.753906 124.628906 323.460938 C 116.695312 361.210938 111.699219 400.402344 120.695312 439.714844 C 126.46875 464.0625 137.554688 488.800781 156.964844 513.046875 Z M 150.816406 512.945312 C 158.96875 523.558594 170.613281 531.867188 181.929688 540.046875 C 197.8125 551.511719 212.851562 562.359375 217.273438 578.160156 L 217.941406 578.007812 C 213.457031 561.921875 198.296875 550.996094 182.296875 539.457031 C 171.101562 531.351562 159.457031 523.046875 151.320312 512.527344 C 96.425781 441.644531 104.847656 371.773438 122.246094 306.898438 C 129.75 279.109375 113.046875 265.820312 98.308594 254.09375 C 87.5 245.496094 77.300781 237.363281 76.980469 224.550781 C 76.285156 196.929688 84.867188 158.929688 92.457031 125.386719 C 94.617188 115.933594 96.59375 107.027344 98.300781 98.683594 C 100.480469 88.019531 107.261719 79.019531 113.800781 70.273438 C 120.601562 61.371094 126.800781 52.90625 128.035156 43.363281 C 130.890625 19.859375 106.527344 10.839844 88.742188 4.242188 C 81.503906 1.570312 75.25 -0.722656 71.90625 -3.480469 L 71.445312 -2.871094 C 74.90625 -0.0390625 81.179688 2.347656 88.515625 5 C 107.074219 11.921875 130.121094 20.4375 127.320312 43.324219 C 126.164062 52.75 119.917969 61.023438 113.308594 69.882812 C 106.769531 78.628906 99.917969 87.746094 97.683594 98.625 C 95.976562 106.964844 93.902344 115.894531 91.84375 125.324219 C 84.273438 158.964844 75.710938 197.0625 76.40625 224.683594 C 76.699219 237.800781 87.132812 246.082031 98.058594 254.757812 C 113.285156 266.871094 129.027344 279.476562 121.722656 306.816406 C 110.679688 348.09375 103.226562 391.472656 113.359375 435.757812 C 119.089844 461.21875 130.703125 486.949219 150.816406 512.945312 Z M 144.707031 513.03125 C 153.230469 524.371094 165.769531 533.074219 177.933594 541.464844 C 194.179688 552.746094 209.460938 563.339844 213.953125 579.019531 L 214.621094 578.867188 C 210.0625 562.898438 194.566406 552.253906 178.300781 540.875 C 166.230469 532.464844 153.714844 523.855469 145.214844 512.613281 C 118.515625 477.152344 104.332031 440.640625 101.832031 400.75 C 99.875 368.484375 105.148438 334.464844 119.140625 290.695312 C 128.480469 261.28125 109.109375 252.125 90.417969 243.320312 C 77.140625 237.097656 64.640625 231.199219 63.679688 218.234375 C 61.765625 192.300781 75.417969 150.121094 86.363281 116.3125 C 89.070312 107.941406 91.597656 100.117188 93.65625 93.304688 C 96.148438 84.882812 101.9375 76.816406 107.480469 69.003906 C 114.226562 59.40625 120.625 50.496094 121.546875 40.921875 C 123.746094 18.476562 98.152344 10.242188 79.480469 4.148438 C 72.871094 2.035156 67.226562 0.207031 64.25 -1.828125 L 63.882812 -1.242188 C 66.976562 0.867188 72.714844 2.675781 79.347656 4.882812 C 97.785156 10.828125 122.972656 19.054688 120.929688 40.863281 C 120.039062 50.125 113.660156 59.132812 106.96875 68.515625 C 101.421875 76.328125 95.65625 84.492188 93.089844 93.03125 C 91.035156 99.84375 88.503906 107.667969 85.800781 116.039062 C 74.777344 149.964844 61.125 192.144531 63.085938 218.269531 C 64.109375 231.523438 76.84375 237.566406 90.261719 243.957031 C 108.71875 252.617188 127.761719 261.648438 118.574219 290.421875 C 104.625 334.382812 99.257812 368.425781 101.238281 400.785156 C 101.863281 411.410156 103.347656 421.84375 105.6875 432.078125 C 112.144531 460.292969 125.09375 487.023438 144.707031 513.03125 Z M 138.601562 513.121094 C 147.488281 525.179688 160.902344 534.1875 173.941406 542.882812 C 190.519531 553.882812 206.183594 564.390625 210.75 579.953125 L 211.417969 579.800781 C 206.691406 563.972656 190.933594 553.488281 174.308594 542.292969 C 161.386719 533.675781 147.878906 524.6875 139.105469 512.703125 C 110.527344 473.847656 95.644531 434.273438 93.882812 391.898438 C 92.417969 357.40625 99.441406 320.066406 115.992188 274.304688 C 119.757812 263.984375 119.9375 255.988281 116.589844 249.710938 C 111.113281 239.386719 96.738281 235.832031 82.8125 232.476562 C 66.949219 228.558594 51.957031 224.941406 50.265625 211.84375 C 46.769531 185.164062 70.355469 130.644531 84.488281 98.019531 C 86.058594 94.339844 87.574219 90.871094 88.796875 87.875 C 91.335938 81.855469 95.617188 75.542969 100.214844 68.855469 C 107.136719 58.714844 114.277344 48.222656 114.96875 38.503906 C 116.433594 16.828125 88.171875 9.203125 69.527344 4.109375 C 63.949219 2.566406 59.128906 1.253906 56.519531 -0.0585938 L 56.171875 0.625 C 58.804688 2.035156 63.722656 3.324219 69.296875 4.867188 C 87.730469 9.910156 115.589844 17.523438 114.277344 38.558594 C 113.640625 48.066406 106.496094 58.558594 99.648438 68.582031 C 95.054688 75.269531 90.773438 81.582031 88.253906 87.695312 C 86.9375 90.714844 85.515625 94.160156 83.945312 97.84375 C 69.8125 130.46875 46.175781 185.199219 49.691406 211.972656 C 49.726562 212.570312 49.859375 213.144531 49.992188 213.71875 C 52.769531 225.863281 67.359375 229.472656 82.773438 233.191406 C 96.511719 236.589844 110.769531 240.070312 116.082031 250.128906 C 119.269531 256.144531 119.066406 264.039062 115.449219 274.128906 C 98.824219 320.007812 91.824219 357.441406 93.308594 392.03125 C 93.804688 404.296875 95.449219 416.300781 98.164062 428.164062 C 104.722656 457.261719 118.1875 485.382812 138.601562 513.121094 Z M 75.625 222.144531 C 91.375 223.371094 107.742188 224.65625 113.5 234.011719 C 116.863281 239.480469 116.5 247.113281 112.351562 257.523438 C 92.898438 305.960938 84.351562 345.867188 85.3125 382.988281 C 86.574219 427.996094 101.941406 470.578125 132.566406 513.09375 C 141.722656 525.894531 156.082031 535.089844 169.972656 543.988281 C 186.9375 554.90625 202.941406 565.132812 207.695312 580.652344 L 208.34375 580.402344 C 203.542969 564.691406 187.402344 554.296875 170.34375 543.402344 C 156.453125 534.503906 142.1875 525.285156 133.074219 512.675781 C 102.589844 470.332031 87.144531 427.867188 86.003906 382.933594 C 84.96875 345.925781 93.539062 306.117188 113.011719 257.777344 C 117.304688 247.128906 117.625 239.304688 114.125 233.664062 C 108.207031 224.046875 91.628906 222.710938 75.664062 221.429688 C 57.351562 219.984375 40.058594 218.605469 37.148438 205.886719 C 37.105469 205.695312 37.0625 205.503906 37.015625 205.3125 C 34.773438 193.746094 40.375 172.132812 53.15625 142.835938 C 62.980469 120.355469 75.757812 96.292969 84.222656 82.378906 C 86.042969 79.34375 88.460938 75.871094 91.027344 72.164062 C 98.707031 60.945312 108.339844 46.863281 108.671875 36.015625 C 109.179688 14.964844 76.320312 7.890625 58.554688 4.003906 C 54.222656 3.082031 50.839844 2.347656 48.859375 1.59375 L 48.609375 2.253906 C 50.683594 2.984375 54.070312 3.722656 58.398438 4.644531 C 75.832031 8.402344 108.386719 15.449219 107.769531 36.023438 C 107.492188 46.65625 97.929688 60.621094 90.226562 71.742188 C 87.660156 75.453125 85.242188 78.925781 83.445312 82.050781 C 69.453125 105.183594 30.859375 177.53125 36.136719 205.414062 C 36.179688 205.605469 36.222656 205.796875 36.269531 205.988281 C 39.40625 219.261719 57.835938 220.78125 75.625 222.144531 Z M 22.953125 199.167969 C 26.554688 213.140625 48.121094 212.132812 68.882812 211.105469 C 86.667969 210.253906 105.050781 209.371094 111.078125 218.15625 C 114.425781 223.128906 113.828125 230.613281 109.226562 241.230469 C 86.945312 292.226562 76.828125 334.503906 77.363281 374.140625 C 78 421.703125 94.027344 467.15625 126.460938 513.183594 C 135.960938 526.609375 151.195312 536.109375 165.933594 545.214844 C 183.257812 555.949219 199.644531 566.089844 204.472656 581.492188 L 205.046875 581.359375 C 200.148438 565.671875 183.648438 555.457031 166.207031 544.652344 C 151.5625 535.519531 136.351562 526.117188 126.964844 512.765625 C 94.671875 466.90625 78.667969 421.550781 77.957031 374.105469 C 77.445312 334.5625 87.582031 292.382812 109.789062 241.503906 C 114.539062 230.652344 115.070312 222.878906 111.585938 217.738281 C 105.277344 208.613281 87.585938 209.441406 68.824219 210.414062 C 48.351562 211.375 27.1875 212.394531 23.621094 199.015625 C 19.839844 184.683594 33.992188 153.460938 42.691406 136.171875 C 56.015625 109.667969 71.585938 85.976562 79.410156 77.140625 C 86.914062 68.675781 102.234375 46.953125 102.113281 33.695312 C 101.820312 12.21875 60.671875 6.238281 45.296875 4.019531 C 43.636719 3.792969 42.191406 3.621094 41.246094 3.433594 L 41.113281 4.171875 C 42.152344 4.335938 43.503906 4.527344 45.164062 4.753906 C 60.441406 6.992188 101.070312 12.894531 101.304688 33.675781 C 101.523438 45.605469 88.296875 65.945312 78.777344 76.578125 C 62.257812 95.257812 16.839844 172.886719 22.726562 198.617188 C 22.867188 198.785156 22.910156 198.976562 22.953125 199.167969 Z M 22.953125 199.167969 "/>
</clipPath>
<linearGradient id="linear0" gradientUnits="userSpaceOnUse" x1="-8.361578" y1="117.318001" x2="614.741976" y2="117.318001" gradientTransform="matrix(0.218888,0.956467,-0.954541,0.218447,182.76788,-29.55632)">
<stop offset="0" style="stop-color:rgb(86.698914%,65.899658%,24.699402%);stop-opacity:1;"/>
<stop offset="0.015625" style="stop-color:rgb(86.697388%,65.869141%,24.725342%);stop-opacity:1;"/>
<stop offset="0.0234375" style="stop-color:rgb(86.686707%,65.67688%,24.90387%);stop-opacity:1;"/>
<stop offset="0.03125" style="stop-color:rgb(86.668396%,65.351868%,25.20752%);stop-opacity:1;"/>
<stop offset="0.0390625" style="stop-color:rgb(86.651611%,65.02533%,25.509644%);stop-opacity:1;"/>
<stop offset="0.046875" style="stop-color:rgb(86.633301%,64.698792%,25.811768%);stop-opacity:1;"/>
<stop offset="0.0546875" style="stop-color:rgb(86.61499%,64.372253%,26.113892%);stop-opacity:1;"/>
<stop offset="0.0625" style="stop-color:rgb(86.598206%,64.047241%,26.416016%);stop-opacity:1;"/>
<stop offset="0.0703125" style="stop-color:rgb(86.579895%,63.720703%,26.719666%);stop-opacity:1;"/>
<stop offset="0.078125" style="stop-color:rgb(86.56311%,63.394165%,27.02179%);stop-opacity:1;"/>
<stop offset="0.0859375" style="stop-color:rgb(86.5448%,63.069153%,27.323914%);stop-opacity:1;"/>
<stop offset="0.09375" style="stop-color:rgb(86.526489%,62.742615%,27.626038%);stop-opacity:1;"/>
<stop offset="0.101562" style="stop-color:rgb(86.509705%,62.416077%,27.928162%);stop-opacity:1;"/>
<stop offset="0.109375" style="stop-color:rgb(86.491394%,62.089539%,28.230286%);stop-opacity:1;"/>
<stop offset="0.117187" style="stop-color:rgb(86.473083%,61.764526%,28.533936%);stop-opacity:1;"/>
<stop offset="0.125" style="stop-color:rgb(86.456299%,61.437988%,28.83606%);stop-opacity:1;"/>
<stop offset="0.132812" style="stop-color:rgb(86.437988%,61.11145%,29.138184%);stop-opacity:1;"/>
<stop offset="0.140625" style="stop-color:rgb(86.419678%,60.786438%,29.440308%);stop-opacity:1;"/>
<stop offset="0.148437" style="stop-color:rgb(86.402893%,60.4599%,29.742432%);stop-opacity:1;"/>
<stop offset="0.15625" style="stop-color:rgb(86.384583%,60.133362%,30.044556%);stop-opacity:1;"/>
<stop offset="0.164062" style="stop-color:rgb(86.366272%,59.806824%,30.348206%);stop-opacity:1;"/>
<stop offset="0.171875" style="stop-color:rgb(86.349487%,59.481812%,30.65033%);stop-opacity:1;"/>
<stop offset="0.179687" style="stop-color:rgb(86.331177%,59.155273%,30.952454%);stop-opacity:1;"/>
<stop offset="0.1875" style="stop-color:rgb(86.312866%,58.828735%,31.254578%);stop-opacity:1;"/>
<stop offset="0.195312" style="stop-color:rgb(86.296082%,58.503723%,31.556702%);stop-opacity:1;"/>
<stop offset="0.203125" style="stop-color:rgb(86.277771%,58.177185%,31.858826%);stop-opacity:1;"/>
<stop offset="0.210938" style="stop-color:rgb(86.25946%,57.850647%,32.162476%);stop-opacity:1;"/>
<stop offset="0.21875" style="stop-color:rgb(86.242676%,57.525635%,32.4646%);stop-opacity:1;"/>
<stop offset="0.226562" style="stop-color:rgb(86.224365%,57.199097%,32.766724%);stop-opacity:1;"/>
<stop offset="0.234375" style="stop-color:rgb(86.206055%,56.872559%,33.068848%);stop-opacity:1;"/>
<stop offset="0.242188" style="stop-color:rgb(86.18927%,56.546021%,33.370972%);stop-opacity:1;"/>
<stop offset="0.25" style="stop-color:rgb(86.170959%,56.221008%,33.673096%);stop-opacity:1;"/>
<stop offset="0.257812" style="stop-color:rgb(86.152649%,55.89447%,33.976746%);stop-opacity:1;"/>
<stop offset="0.265625" style="stop-color:rgb(86.135864%,55.567932%,34.27887%);stop-opacity:1;"/>
<stop offset="0.273438" style="stop-color:rgb(86.117554%,55.24292%,34.580994%);stop-opacity:1;"/>
<stop offset="0.28125" style="stop-color:rgb(86.099243%,54.916382%,34.883118%);stop-opacity:1;"/>
<stop offset="0.289062" style="stop-color:rgb(86.082458%,54.589844%,35.185242%);stop-opacity:1;"/>
<stop offset="0.296875" style="stop-color:rgb(86.064148%,54.263306%,35.487366%);stop-opacity:1;"/>
<stop offset="0.304688" style="stop-color:rgb(86.045837%,53.938293%,35.791016%);stop-opacity:1;"/>
<stop offset="0.3125" style="stop-color:rgb(86.029053%,53.611755%,36.09314%);stop-opacity:1;"/>
<stop offset="0.320312" style="stop-color:rgb(86.010742%,53.285217%,36.395264%);stop-opacity:1;"/>
<stop offset="0.328125" style="stop-color:rgb(85.992432%,52.960205%,36.697388%);stop-opacity:1;"/>
<stop offset="0.335938" style="stop-color:rgb(85.975647%,52.633667%,36.999512%);stop-opacity:1;"/>
<stop offset="0.34375" style="stop-color:rgb(85.957336%,52.307129%,37.301636%);stop-opacity:1;"/>
<stop offset="0.351562" style="stop-color:rgb(85.940552%,51.980591%,37.605286%);stop-opacity:1;"/>
<stop offset="0.359375" style="stop-color:rgb(85.922241%,51.655579%,37.90741%);stop-opacity:1;"/>
<stop offset="0.367188" style="stop-color:rgb(85.903931%,51.329041%,38.209534%);stop-opacity:1;"/>
<stop offset="0.375" style="stop-color:rgb(85.887146%,51.002502%,38.511658%);stop-opacity:1;"/>
<stop offset="0.382813" style="stop-color:rgb(85.868835%,50.67749%,38.813782%);stop-opacity:1;"/>
<stop offset="0.390625" style="stop-color:rgb(85.850525%,50.350952%,39.117432%);stop-opacity:1;"/>
<stop offset="0.398438" style="stop-color:rgb(85.83374%,50.024414%,39.419556%);stop-opacity:1;"/>
<stop offset="0.40625" style="stop-color:rgb(85.81543%,49.697876%,39.72168%);stop-opacity:1;"/>
<stop offset="0.414063" style="stop-color:rgb(85.797119%,49.372864%,40.023804%);stop-opacity:1;"/>
<stop offset="0.421875" style="stop-color:rgb(85.780334%,49.046326%,40.325928%);stop-opacity:1;"/>
<stop offset="0.429688" style="stop-color:rgb(85.762024%,48.719788%,40.628052%);stop-opacity:1;"/>
<stop offset="0.4375" style="stop-color:rgb(85.743713%,48.394775%,40.931702%);stop-opacity:1;"/>
<stop offset="0.445313" style="stop-color:rgb(85.726929%,48.068237%,41.233826%);stop-opacity:1;"/>
<stop offset="0.453125" style="stop-color:rgb(85.708618%,47.741699%,41.53595%);stop-opacity:1;"/>
<stop offset="0.460938" style="stop-color:rgb(85.690308%,47.415161%,41.838074%);stop-opacity:1;"/>
<stop offset="0.46875" style="stop-color:rgb(85.673523%,47.090149%,42.140198%);stop-opacity:1;"/>
<stop offset="0.476563" style="stop-color:rgb(85.655212%,46.763611%,42.442322%);stop-opacity:1;"/>
<stop offset="0.484375" style="stop-color:rgb(85.636902%,46.437073%,42.745972%);stop-opacity:1;"/>
<stop offset="0.492187" style="stop-color:rgb(85.620117%,46.112061%,43.048096%);stop-opacity:1;"/>
<stop offset="0.5" style="stop-color:rgb(85.601807%,45.785522%,43.35022%);stop-opacity:1;"/>
<stop offset="0.507812" style="stop-color:rgb(85.583496%,45.458984%,43.652344%);stop-opacity:1;"/>
<stop offset="0.515625" style="stop-color:rgb(85.566711%,45.132446%,43.954468%);stop-opacity:1;"/>
<stop offset="0.523437" style="stop-color:rgb(85.548401%,44.807434%,44.256592%);stop-opacity:1;"/>
<stop offset="0.53125" style="stop-color:rgb(85.53009%,44.480896%,44.560242%);stop-opacity:1;"/>
<stop offset="0.539062" style="stop-color:rgb(85.513306%,44.154358%,44.862366%);stop-opacity:1;"/>
<stop offset="0.546875" style="stop-color:rgb(85.31189%,43.809509%,44.915771%);stop-opacity:1;"/>
<stop offset="0.550781" style="stop-color:rgb(84.854126%,43.437195%,44.621277%);stop-opacity:1;"/>
<stop offset="0.554687" style="stop-color:rgb(84.588623%,43.247986%,44.424438%);stop-opacity:1;"/>
<stop offset="0.558594" style="stop-color:rgb(84.32312%,43.057251%,44.2276%);stop-opacity:1;"/>
<stop offset="0.5625" style="stop-color:rgb(84.059143%,42.868042%,44.030762%);stop-opacity:1;"/>
<stop offset="0.566406" style="stop-color:rgb(83.79364%,42.678833%,43.833923%);stop-opacity:1;"/>
<stop offset="0.570312" style="stop-color:rgb(83.528137%,42.489624%,43.637085%);stop-opacity:1;"/>
<stop offset="0.574219" style="stop-color:rgb(83.262634%,42.298889%,43.440247%);stop-opacity:1;"/>
<stop offset="0.578125" style="stop-color:rgb(82.998657%,42.10968%,43.243408%);stop-opacity:1;"/>
<stop offset="0.582031" style="stop-color:rgb(82.733154%,41.918945%,43.04657%);stop-opacity:1;"/>
<stop offset="0.585937" style="stop-color:rgb(82.467651%,41.729736%,42.851257%);stop-opacity:1;"/>
<stop offset="0.589844" style="stop-color:rgb(82.202148%,41.539001%,42.654419%);stop-opacity:1;"/>
<stop offset="0.59375" style="stop-color:rgb(81.938171%,41.349792%,42.457581%);stop-opacity:1;"/>
<stop offset="0.597656" style="stop-color:rgb(81.672668%,41.160583%,42.260742%);stop-opacity:1;"/>
<stop offset="0.601562" style="stop-color:rgb(81.407166%,40.971375%,42.063904%);stop-opacity:1;"/>
<stop offset="0.605469" style="stop-color:rgb(81.141663%,40.78064%,41.867065%);stop-opacity:1;"/>
<stop offset="0.609375" style="stop-color:rgb(80.877686%,40.591431%,41.670227%);stop-opacity:1;"/>
<stop offset="0.613281" style="stop-color:rgb(80.612183%,40.400696%,41.473389%);stop-opacity:1;"/>
<stop offset="0.617187" style="stop-color:rgb(80.34668%,40.211487%,41.27655%);stop-opacity:1;"/>
<stop offset="0.621094" style="stop-color:rgb(80.081177%,40.020752%,41.079712%);stop-opacity:1;"/>
<stop offset="0.625" style="stop-color:rgb(79.8172%,39.831543%,40.882874%);stop-opacity:1;"/>
<stop offset="0.628906" style="stop-color:rgb(79.551697%,39.642334%,40.686035%);stop-opacity:1;"/>
<stop offset="0.632812" style="stop-color:rgb(79.286194%,39.453125%,40.490723%);stop-opacity:1;"/>
<stop offset="0.636719" style="stop-color:rgb(79.020691%,39.26239%,40.293884%);stop-opacity:1;"/>
<stop offset="0.640625" style="stop-color:rgb(78.755188%,39.073181%,40.097046%);stop-opacity:1;"/>
<stop offset="0.644531" style="stop-color:rgb(78.489685%,38.882446%,39.900208%);stop-opacity:1;"/>
<stop offset="0.648437" style="stop-color:rgb(78.225708%,38.693237%,39.703369%);stop-opacity:1;"/>
<stop offset="0.652344" style="stop-color:rgb(77.960205%,38.502502%,39.506531%);stop-opacity:1;"/>
<stop offset="0.65625" style="stop-color:rgb(77.694702%,38.313293%,39.309692%);stop-opacity:1;"/>
<stop offset="0.660156" style="stop-color:rgb(77.429199%,38.124084%,39.112854%);stop-opacity:1;"/>
<stop offset="0.664062" style="stop-color:rgb(77.165222%,37.934875%,38.916016%);stop-opacity:1;"/>
<stop offset="0.667969" style="stop-color:rgb(76.899719%,37.744141%,38.719177%);stop-opacity:1;"/>
<stop offset="0.671875" style="stop-color:rgb(76.634216%,37.554932%,38.523865%);stop-opacity:1;"/>
<stop offset="0.675781" style="stop-color:rgb(76.368713%,37.364197%,38.327026%);stop-opacity:1;"/>
<stop offset="0.679687" style="stop-color:rgb(76.104736%,37.174988%,38.130188%);stop-opacity:1;"/>
<stop offset="0.683594" style="stop-color:rgb(75.839233%,36.984253%,37.93335%);stop-opacity:1;"/>
<stop offset="0.6875" style="stop-color:rgb(75.57373%,36.795044%,37.736511%);stop-opacity:1;"/>
<stop offset="0.691406" style="stop-color:rgb(75.308228%,36.605835%,37.539673%);stop-opacity:1;"/>
<stop offset="0.695312" style="stop-color:rgb(75.04425%,36.416626%,37.342834%);stop-opacity:1;"/>
<stop offset="0.699219" style="stop-color:rgb(74.778748%,36.225891%,37.145996%);stop-opacity:1;"/>
<stop offset="0.703125" style="stop-color:rgb(74.513245%,36.036682%,36.949158%);stop-opacity:1;"/>
<stop offset="0.707031" style="stop-color:rgb(74.247742%,35.845947%,36.752319%);stop-opacity:1;"/>
<stop offset="0.710937" style="stop-color:rgb(73.982239%,35.656738%,36.555481%);stop-opacity:1;"/>
<stop offset="0.714844" style="stop-color:rgb(73.716736%,35.467529%,36.358643%);stop-opacity:1;"/>
<stop offset="0.71875" style="stop-color:rgb(73.452759%,35.27832%,36.16333%);stop-opacity:1;"/>
<stop offset="0.722656" style="stop-color:rgb(73.187256%,35.087585%,35.966492%);stop-opacity:1;"/>
<stop offset="0.726562" style="stop-color:rgb(72.921753%,34.898376%,35.769653%);stop-opacity:1;"/>
<stop offset="0.730469" style="stop-color:rgb(72.65625%,34.707642%,35.572815%);stop-opacity:1;"/>
<stop offset="0.734375" style="stop-color:rgb(72.392273%,34.518433%,35.375977%);stop-opacity:1;"/>
<stop offset="0.738281" style="stop-color:rgb(72.12677%,34.327698%,35.179138%);stop-opacity:1;"/>
<stop offset="0.742187" style="stop-color:rgb(71.861267%,34.138489%,34.9823%);stop-opacity:1;"/>
<stop offset="0.746094" style="stop-color:rgb(71.595764%,33.94928%,34.785461%);stop-opacity:1;"/>
<stop offset="0.75" style="stop-color:rgb(71.331787%,33.760071%,34.588623%);stop-opacity:1;"/>
<stop offset="0.753906" style="stop-color:rgb(71.066284%,33.569336%,34.391785%);stop-opacity:1;"/>
<stop offset="0.757812" style="stop-color:rgb(70.800781%,33.380127%,34.194946%);stop-opacity:1;"/>
<stop offset="0.761719" style="stop-color:rgb(70.535278%,33.189392%,33.998108%);stop-opacity:1;"/>
<stop offset="0.765625" style="stop-color:rgb(70.271301%,33.000183%,33.802795%);stop-opacity:1;"/>
<stop offset="0.769531" style="stop-color:rgb(70.005798%,32.809448%,33.605957%);stop-opacity:1;"/>
<stop offset="0.773437" style="stop-color:rgb(69.740295%,32.620239%,33.409119%);stop-opacity:1;"/>
<stop offset="0.777344" style="stop-color:rgb(69.474792%,32.43103%,33.21228%);stop-opacity:1;"/>
<stop offset="0.78125" style="stop-color:rgb(69.20929%,32.241821%,33.015442%);stop-opacity:1;"/>
<stop offset="0.785156" style="stop-color:rgb(68.943787%,32.051086%,32.818604%);stop-opacity:1;"/>
<stop offset="0.789062" style="stop-color:rgb(68.67981%,31.861877%,32.621765%);stop-opacity:1;"/>
<stop offset="0.792969" style="stop-color:rgb(68.414307%,31.671143%,32.424927%);stop-opacity:1;"/>
<stop offset="0.796875" style="stop-color:rgb(68.148804%,31.481934%,32.228088%);stop-opacity:1;"/>
<stop offset="0.800781" style="stop-color:rgb(67.883301%,31.291199%,32.03125%);stop-opacity:1;"/>
<stop offset="0.804687" style="stop-color:rgb(67.619324%,31.10199%,31.835938%);stop-opacity:1;"/>
<stop offset="0.808594" style="stop-color:rgb(67.353821%,30.912781%,31.639099%);stop-opacity:1;"/>
<stop offset="0.8125" style="stop-color:rgb(67.088318%,30.723572%,31.442261%);stop-opacity:1;"/>
<stop offset="0.816406" style="stop-color:rgb(66.822815%,30.532837%,31.245422%);stop-opacity:1;"/>
<stop offset="0.820312" style="stop-color:rgb(66.558838%,30.343628%,31.048584%);stop-opacity:1;"/>
<stop offset="0.824219" style="stop-color:rgb(66.293335%,30.152893%,30.851746%);stop-opacity:1;"/>
<stop offset="0.828125" style="stop-color:rgb(66.027832%,29.963684%,30.654907%);stop-opacity:1;"/>
<stop offset="0.832031" style="stop-color:rgb(65.762329%,29.772949%,30.458069%);stop-opacity:1;"/>
<stop offset="0.835937" style="stop-color:rgb(65.498352%,29.58374%,30.26123%);stop-opacity:1;"/>
<stop offset="0.839844" style="stop-color:rgb(65.232849%,29.394531%,30.064392%);stop-opacity:1;"/>
<stop offset="0.84375" style="stop-color:rgb(64.967346%,29.205322%,29.867554%);stop-opacity:1;"/>
<stop offset="0.847656" style="stop-color:rgb(64.701843%,29.014587%,29.670715%);stop-opacity:1;"/>
<stop offset="0.851562" style="stop-color:rgb(64.437866%,28.825378%,29.475403%);stop-opacity:1;"/>
<stop offset="0.855469" style="stop-color:rgb(64.172363%,28.634644%,29.278564%);stop-opacity:1;"/>
<stop offset="0.859375" style="stop-color:rgb(63.90686%,28.445435%,29.081726%);stop-opacity:1;"/>
<stop offset="0.863281" style="stop-color:rgb(63.641357%,28.256226%,28.884888%);stop-opacity:1;"/>
<stop offset="0.867187" style="stop-color:rgb(63.375854%,28.067017%,28.688049%);stop-opacity:1;"/>
<stop offset="0.871094" style="stop-color:rgb(63.110352%,27.876282%,28.491211%);stop-opacity:1;"/>
<stop offset="0.875" style="stop-color:rgb(62.846375%,27.687073%,28.294373%);stop-opacity:1;"/>
<stop offset="0.878906" style="stop-color:rgb(62.580872%,27.496338%,28.097534%);stop-opacity:1;"/>
<stop offset="0.882812" style="stop-color:rgb(62.315369%,27.307129%,27.900696%);stop-opacity:1;"/>
<stop offset="0.886719" style="stop-color:rgb(62.049866%,27.116394%,27.703857%);stop-opacity:1;"/>
<stop offset="0.890625" style="stop-color:rgb(61.785889%,26.927185%,27.507019%);stop-opacity:1;"/>
<stop offset="0.894531" style="stop-color:rgb(61.520386%,26.737976%,27.310181%);stop-opacity:1;"/>
<stop offset="0.898437" style="stop-color:rgb(61.254883%,26.548767%,27.114868%);stop-opacity:1;"/>
<stop offset="0.902344" style="stop-color:rgb(60.98938%,26.358032%,26.91803%);stop-opacity:1;"/>
<stop offset="0.90625" style="stop-color:rgb(60.725403%,26.168823%,26.721191%);stop-opacity:1;"/>
<stop offset="0.910156" style="stop-color:rgb(60.4599%,25.978088%,26.524353%);stop-opacity:1;"/>
<stop offset="0.914062" style="stop-color:rgb(60.194397%,25.788879%,26.327515%);stop-opacity:1;"/>
<stop offset="0.917969" style="stop-color:rgb(59.928894%,25.598145%,26.130676%);stop-opacity:1;"/>
<stop offset="0.921875" style="stop-color:rgb(59.664917%,25.408936%,25.933838%);stop-opacity:1;"/>
<stop offset="0.925781" style="stop-color:rgb(59.399414%,25.219727%,25.737%);stop-opacity:1;"/>
<stop offset="0.929687" style="stop-color:rgb(59.133911%,25.030518%,25.540161%);stop-opacity:1;"/>
<stop offset="0.933594" style="stop-color:rgb(58.868408%,24.839783%,25.343323%);stop-opacity:1;"/>
<stop offset="0.9375" style="stop-color:rgb(58.602905%,24.650574%,25.14801%);stop-opacity:1;"/>
<stop offset="0.941406" style="stop-color:rgb(58.337402%,24.459839%,24.951172%);stop-opacity:1;"/>
<stop offset="0.945312" style="stop-color:rgb(58.073425%,24.27063%,24.754333%);stop-opacity:1;"/>
<stop offset="0.949219" style="stop-color:rgb(57.807922%,24.079895%,24.557495%);stop-opacity:1;"/>
<stop offset="0.953125" style="stop-color:rgb(57.542419%,23.890686%,24.360657%);stop-opacity:1;"/>
<stop offset="0.957031" style="stop-color:rgb(57.276917%,23.701477%,24.163818%);stop-opacity:1;"/>
<stop offset="0.960937" style="stop-color:rgb(57.012939%,23.512268%,23.96698%);stop-opacity:1;"/>
<stop offset="0.964844" style="stop-color:rgb(56.747437%,23.321533%,23.770142%);stop-opacity:1;"/>
<stop offset="0.96875" style="stop-color:rgb(56.481934%,23.132324%,23.573303%);stop-opacity:1;"/>
<stop offset="0.972656" style="stop-color:rgb(56.216431%,22.941589%,23.376465%);stop-opacity:1;"/>
<stop offset="0.976562" style="stop-color:rgb(55.952454%,22.75238%,23.179626%);stop-opacity:1;"/>
<stop offset="0.980469" style="stop-color:rgb(55.686951%,22.561646%,22.982788%);stop-opacity:1;"/>
<stop offset="0.984375" style="stop-color:rgb(55.421448%,22.372437%,22.787476%);stop-opacity:1;"/>
<stop offset="0.988281" style="stop-color:rgb(55.160522%,22.184753%,22.593689%);stop-opacity:1;"/>
<stop offset="0.992188" style="stop-color:rgb(54.899597%,21.998596%,22.399902%);stop-opacity:1;"/>
<stop offset="1" style="stop-color:rgb(54.899597%,21.998596%,22.399902%);stop-opacity:1;"/>
</linearGradient>
</defs>
<g id="surface1">
<g clip-path="url(#clip1)" clip-rule="nonzero">
<g clip-path="url(#clip2)" clip-rule="nonzero">
<g clip-path="url(#clip3)" clip-rule="nonzero">
<g clip-path="url(#clip4)" clip-rule="nonzero">
<g clip-path="url(#clip5)" clip-rule="nonzero">
<path style=" stroke:none;fill-rule:nonzero;fill:rgb(80.778503%,87.059021%,92.158508%);fill-opacity:1;" d="M 851.660156 490.191406 C 851.476562 480.179688 851.796875 469.492188 852.703125 458.050781 C 853.671875 445.550781 857.808594 434.953125 864.238281 425.679688 C 866.128906 420.84375 868.574219 416.359375 871.515625 412.140625 C 873.402344 407.257812 875.882812 402.722656 878.820312 398.46875 C 880.738281 393.523438 883.234375 388.9375 886.21875 384.621094 C 888.125 379.738281 890.605469 375.1875 893.523438 370.886719 C 895.460938 365.890625 897.96875 361.226562 900.9375 356.828125 C 902.902344 351.734375 905.441406 346.96875 908.441406 342.457031 C 910.453125 337.25 913.023438 332.355469 916.019531 327.695312 C 918.125 322.195312 920.800781 317.023438 923.890625 312.070312 C 926.007812 306.503906 928.636719 301.1875 931.574219 296.078125 C 933.855469 289.714844 936.632812 283.617188 939.667969 277.695312 C 939.117188 279.4375 938.582031 281.183594 938.0625 282.941406 C 936.703125 285.804688 935.410156 288.714844 934.21875 291.667969 C 935.050781 290.324219 935.902344 288.996094 936.773438 287.683594 C 936.515625 288.660156 936.273438 289.652344 936.03125 290.648438 C 934.707031 292.730469 933.433594 294.8125 932.222656 296.925781 C 931.558594 298.816406 930.929688 300.742188 930.351562 302.679688 C 931.726562 300.855469 933.152344 299.046875 934.613281 297.253906 C 934.464844 298.050781 934.320312 298.863281 934.1875 299.675781 C 932.554688 301.714844 930.96875 303.789062 929.453125 305.890625 C 928.90625 307.992188 928.410156 310.125 927.996094 312.289062 C 929.667969 310.441406 931.382812 308.609375 933.152344 306.792969 C 933.050781 307.527344 932.953125 308.257812 932.867188 308.988281 C 931.039062 310.902344 929.257812 312.832031 927.539062 314.792969 C 927.277344 316.320312 927.0625 317.863281 926.878906 319.421875 C 926.796875 320.121094 926.695312 320.820312 926.609375 321.519531 C 928.316406 319.898438 930.054688 318.3125 931.84375 316.738281 C 931.742188 317.484375 931.644531 318.21875 931.542969 318.964844 C 929.757812 320.570312 928.035156 322.175781 926.328125 323.792969 C 926.03125 326.214844 925.738281 328.683594 925.425781 331.167969 C 927.058594 329.808594 928.71875 328.480469 930.414062 327.15625 C 930.316406 327.917969 930.199219 328.683594 930.101562 329.445312 C 928.421875 330.789062 926.757812 332.132812 925.128906 333.492188 C 924.804688 336.058594 924.480469 338.640625 924.15625 341.273438 C 925.722656 340.125 927.308594 338.980469 928.925781 337.847656 C 928.808594 338.644531 928.695312 339.441406 928.597656 340.234375 C 926.996094 341.367188 925.410156 342.515625 923.859375 343.679688 C 923.519531 346.308594 923.195312 348.957031 922.855469 351.65625 C 924.34375 350.65625 925.867188 349.671875 927.40625 348.6875 C 927.292969 349.515625 927.175781 350.328125 927.0625 351.15625 C 925.539062 352.140625 924.035156 353.125 922.542969 354.125 C 922.203125 356.820312 921.863281 359.535156 921.527344 362.28125 C 922.953125 361.410156 924.398438 360.558594 925.859375 359.6875 C 925.746094 360.546875 925.628906 361.410156 925.5 362.269531 C 924.054688 363.125 922.628906 363.992188 921.21875 364.847656 C 920.878906 367.558594 920.539062 370.304688 920.21875 373.050781 C 921.582031 372.296875 922.945312 371.523438 924.34375 370.769531 C 924.214844 371.664062 924.101562 372.558594 923.972656 373.449219 C 922.605469 374.207031 921.242188 374.960938 919.894531 375.730469 C 919.570312 378.445312 919.25 381.171875 918.925781 383.917969 C 920.226562 383.246094 921.53125 382.574219 922.847656 381.898438 C 922.71875 382.824219 922.589844 383.769531 922.476562 384.695312 C 921.175781 385.351562 919.890625 386.023438 918.605469 386.695312 C 914.054688 426.554688 910.25 469.820312 911.011719 510.859375 C 911.351562 529.167969 912.605469 547.039062 915.09375 563.964844 C 915.765625 569.574219 916.546875 575.089844 917.492188 580.46875 C 917.859375 582 918.246094 583.535156 918.644531 585.035156 L 915.304688 585.09375 C 911.863281 575.222656 908.894531 564.695312 906.511719 553.410156 C 901.085938 527.65625 898.753906 499.902344 898.246094 472.539062 C 897.757812 446.191406 898.964844 420.222656 900.753906 396.765625 C 899.117188 397.753906 897.53125 398.773438 895.957031 399.789062 C 894.304688 422.691406 893.664062 444.144531 894.039062 464.1875 C 894.9375 512.699219 901.78125 552.929688 914.65625 585.109375 L 913.117188 585.136719 C 900.320312 552.859375 893.507812 512.609375 892.609375 464.148438 C 892.242188 444.398438 892.859375 423.285156 894.453125 400.789062 C 892.800781 401.890625 891.183594 403.007812 889.617188 404.136719 C 888.148438 423.792969 887.582031 442.410156 887.910156 460.007812 C 888.835938 510.121094 897.007812 551.882812 912.339844 585.152344 L 910.585938 585.183594 C 895.386719 551.832031 887.265625 510.132812 886.339844 460.132812 C 886.019531 442.859375 886.554688 424.601562 887.949219 405.367188 C 886.304688 406.582031 884.71875 407.808594 883.167969 409.070312 C 881.71875 427.039062 881.140625 444.117188 881.441406 460.335938 C 882.367188 510.320312 891.609375 552 909.09375 585.210938 L 907.148438 585.246094 C 889.824219 551.917969 880.664062 510.257812 879.738281 460.351562 C 879.449219 444.601562 879.984375 428.011719 881.332031 410.613281 C 879.734375 411.96875 878.1875 413.359375 876.707031 414.78125 C 876.636719 415.382812 876.582031 415.984375 876.527344 416.601562 C 874.957031 434.152344 874.304688 450.742188 874.597656 466.429688 C 875.5 514.402344 885.121094 553.773438 903.875 585.308594 L 902.1875 585.339844 C 901.585938 584.3125 900.949219 583.304688 900.363281 582.261719 C 882.761719 550.835938 873.632812 512.527344 872.773438 466.023438 C 872.484375 450.550781 873.121094 434.152344 874.652344 416.8125 C 873.328125 418.167969 872.058594 419.535156 870.851562 420.953125 C 870.113281 423.996094 869.601562 427.167969 869.339844 430.476562 C 868.058594 445.300781 867.539062 459.347656 867.785156 472.664062 C 868.636719 518.519531 878.632812 555.5625 898.699219 585.402344 L 896.25 585.449219 C 876.492188 555.503906 866.65625 518.472656 865.808594 472.765625 C 865.558594 459.367188 866.078125 445.222656 867.359375 430.304688 C 867.53125 428.242188 867.785156 426.246094 868.121094 424.292969 C 867.363281 425.296875 866.617188 426.316406 865.90625 427.367188 C 863.929688 432.605469 862.636719 438.253906 862.152344 444.371094 C 861.117188 456.9375 860.71875 468.710938 860.925781 479.761719 C 861.789062 526.375 873.203125 560.136719 891.566406 585.535156 L 888.875 585.585938 C 870.847656 560.050781 859.664062 526.320312 858.804688 479.960938 C 858.597656 468.78125 858.992188 456.878906 860.039062 444.183594 C 860.289062 440.953125 860.765625 437.851562 861.441406 434.871094 C 857.886719 441.875 855.628906 449.597656 854.945312 458.25 C 854.070312 469.515625 853.726562 480.058594 853.910156 489.925781 C 854.707031 532.941406 865.277344 563.21875 882.484375 585.703125 L 879.46875 585.757812 C 862.699219 563.152344 852.453125 532.871094 851.660156 490.191406 M 873.050781 413.730469 C 872.773438 414.449219 872.511719 415.183594 872.265625 415.933594 C 873.171875 414.992188 874.097656 414.070312 875.054688 413.160156 C 875.183594 412.21875 875.328125 411.308594 875.488281 410.378906 C 874.632812 411.480469 873.828125 412.597656 873.050781 413.730469 M 878.011719 407.269531 C 877.726562 408.539062 877.457031 409.808594 877.222656 411.125 C 878.640625 409.835938 880.09375 408.59375 881.597656 407.367188 C 881.714844 405.90625 881.851562 404.425781 881.984375 402.964844 C 880.601562 404.371094 879.28125 405.804688 878.011719 407.269531 M 880.226562 400 C 879.917969 400.832031 879.625 401.695312 879.335938 402.5625 C 880.320312 401.523438 881.324219 400.515625 882.359375 399.507812 C 882.503906 398.449219 882.675781 397.410156 882.871094 396.386719 C 881.949219 397.570312 881.0625 398.769531 880.226562 400 M 883.898438 401.066406 C 883.828125 401.617188 883.773438 402.171875 883.71875 402.722656 C 883.621094 403.777344 883.527344 404.832031 883.433594 405.890625 C 884.96875 404.675781 886.554688 403.480469 888.171875 402.316406 C 888.316406 400.480469 888.460938 398.632812 888.621094 396.78125 C 886.992188 398.171875 885.410156 399.613281 883.898438 401.066406 M 885.234375 393.472656 C 884.902344 394.824219 884.617188 396.207031 884.382812 397.605469 C 885.835938 396.28125 887.335938 394.988281 888.886719 393.695312 C 889.019531 392.136719 889.167969 390.578125 889.320312 389.019531 C 887.886719 390.472656 886.535156 391.957031 885.234375 393.472656 M 887.511719 386.070312 C 887.140625 387.035156 886.800781 388.03125 886.480469 389.023438 C 887.515625 387.917969 888.582031 386.828125 889.679688 385.773438 C 889.851562 384.585938 890.042969 383.449219 890.25 382.308594 C 889.296875 383.542969 888.382812 384.792969 887.511719 386.070312 M 890.3125 395.339844 C 890.152344 397.289062 889.996094 399.21875 889.835938 401.132812 C 891.421875 400.035156 893.023438 398.9375 894.675781 397.867188 C 894.828125 395.773438 894.984375 393.648438 895.15625 391.539062 C 893.492188 392.785156 891.894531 394.046875 890.3125 395.339844 M 891.085938 387.253906 C 891.015625 387.773438 890.960938 388.308594 890.90625 388.84375 C 890.796875 390 890.6875 391.167969 890.582031 392.320312 C 892.148438 391.074219 893.761719 389.863281 895.394531 388.648438 C 895.570312 386.714844 895.730469 384.785156 895.902344 382.820312 C 894.242188 384.261719 892.632812 385.75 891.085938 387.253906 M 891.238281 377.964844 C 891.160156 378.09375 891.097656 378.226562 891.035156 378.339844 C 891.082031 378.289062 891.128906 378.226562 891.179688 378.160156 C 891.191406 378.09375 891.222656 378.027344 891.238281 377.964844 M 892.453125 379.59375 C 892.105469 381.027344 891.808594 382.492188 891.546875 384.003906 C 893.046875 382.613281 894.59375 381.257812 896.175781 379.929688 C 896.339844 378.273438 896.488281 376.617188 896.648438 374.945312 C 895.203125 376.464844 893.785156 378.011719 892.453125 379.59375 M 894.703125 372.257812 C 894.316406 373.304688 893.960938 374.347656 893.625 375.40625 C 894.722656 374.21875 895.851562 373.046875 897.015625 371.890625 C 897.203125 370.640625 897.40625 369.40625 897.644531 368.183594 C 896.613281 369.515625 895.632812 370.878906 894.703125 372.257812 M 896.691406 390.40625 C 896.507812 392.582031 896.335938 394.742188 896.179688 396.898438 C 897.75 395.882812 899.339844 394.898438 900.976562 393.925781 C 901.160156 391.574219 901.34375 389.269531 901.527344 386.996094 C 899.878906 388.113281 898.277344 389.242188 896.691406 390.40625 M 897.46875 381.496094 C 897.296875 383.523438 897.105469 385.539062 896.933594 387.550781 C 898.515625 386.417969 900.136719 385.304688 901.769531 384.203125 C 901.972656 381.980469 902.171875 379.753906 902.375 377.578125 C 900.695312 378.859375 899.066406 380.167969 897.46875 381.496094 M 898.289062 373.3125 C 898.21875 373.847656 898.164062 374.398438 898.109375 374.949219 C 897.988281 376.183594 897.863281 377.417969 897.742188 378.636719 C 899.324219 377.34375 900.953125 376.082031 902.632812 374.835938 C 902.824219 372.773438 903.011719 370.726562 903.21875 368.714844 C 901.511719 370.21875 899.867188 371.742188 898.289062 373.3125 M 902.117188 395.929688 C 900.285156 419.613281 899.050781 445.875 899.542969 472.515625 C 900.050781 499.800781 902.378906 527.472656 907.785156 553.125 C 910.097656 564.105469 912.964844 574.359375 916.289062 583.976562 C 912.878906 572.402344 910.132812 559.824219 908.03125 546.21875 C 905.007812 526.5 903.503906 505.84375 903.109375 484.636719 C 902.558594 454.824219 904.191406 423.933594 906.800781 393.171875 C 905.210938 394.074219 903.65625 394.996094 902.117188 395.929688 M 898.757812 363.464844 C 898.476562 363.988281 898.191406 364.511719 897.925781 365.019531 C 898.132812 364.773438 898.339844 364.523438 898.527344 364.277344 C 898.605469 364.019531 898.679688 363.742188 898.757812 363.464844 M 899.691406 365.652344 C 899.3125 367.148438 899 368.679688 898.738281 370.238281 C 900.265625 368.800781 901.863281 367.378906 903.492188 365.984375 C 903.65625 364.28125 903.835938 362.589844 904.015625 360.933594 C 904.015625 360.886719 904.011719 360.835938 904.027344 360.789062 C 902.515625 362.371094 901.054688 363.988281 899.691406 365.652344 M 902 358.136719 C 901.550781 359.3125 901.152344 360.5 900.769531 361.722656 C 901.929688 360.421875 903.136719 359.152344 904.378906 357.898438 C 904.582031 356.5 904.832031 355.117188 905.113281 353.765625 C 904.023438 355.195312 902.976562 356.644531 902 358.136719 M 902.921875 386.0625 C 902.722656 388.382812 902.523438 390.722656 902.339844 393.105469 C 903.878906 392.171875 905.453125 391.265625 907.042969 390.363281 C 907.253906 387.894531 907.484375 385.425781 907.699219 382.957031 C 906.078125 383.976562 904.492188 385.011719 902.921875 386.0625 M 908.101562 392.417969 C 905.425781 424.738281 903.898438 456.242188 904.449219 485.90625 C 905.125 522.394531 908.945312 556.101562 917.574219 585.054688 C 910.660156 558.519531 907.691406 528.765625 907.121094 498 C 906.457031 462.140625 909.0625 424.929688 912.484375 389.984375 C 911.007812 390.789062 909.546875 391.59375 908.101562 392.417969 M 903.769531 376.53125 C 903.566406 378.757812 903.363281 381.011719 903.164062 383.300781 C 904.734375 382.269531 906.335938 381.25 907.957031 380.246094 C 908.1875 377.828125 908.417969 375.425781 908.652344 373.003906 C 906.984375 374.171875 905.367188 375.335938 903.769531 376.53125 M 904.640625 367.488281 C 904.433594 369.550781 904.230469 371.660156 904.027344 373.804688 C 905.625 372.640625 907.242188 371.492188 908.910156 370.359375 C 909.144531 368.050781 909.375 365.746094 909.609375 363.425781 C 907.914062 364.769531 906.25 366.113281 904.640625 367.488281 M 905.507812 359.253906 C 905.421875 359.855469 905.351562 360.457031 905.296875 361.074219 C 905.175781 362.292969 905.035156 363.542969 904.914062 364.792969 C 906.527344 363.449219 908.171875 362.136719 909.867188 360.84375 C 910.089844 358.714844 910.308594 356.589844 910.546875 354.476562 C 908.804688 356.03125 907.117188 357.636719 905.507812 359.253906 M 906.351562 348.71875 C 905.863281 349.585938 905.410156 350.453125 904.957031 351.339844 C 905.289062 350.925781 905.621094 350.515625 905.972656 350.089844 C 906.09375 349.632812 906.214844 349.175781 906.351562 348.71875 M 913.5625 389.382812 C 910.125 424.503906 907.476562 461.914062 908.144531 497.964844 C 908.597656 522.558594 910.601562 546.527344 914.921875 568.683594 C 911.953125 550.359375 910.503906 530.886719 910.132812 510.859375 C 909.375 469.980469 913.136719 426.910156 917.65625 387.199219 C 916.292969 387.921875 914.925781 388.660156 913.5625 389.382812 M 906.984375 351.398438 C 906.578125 353.027344 906.234375 354.671875 905.941406 356.359375 C 907.519531 354.839844 909.144531 353.351562 910.804688 351.878906 C 910.988281 350.269531 911.152344 348.664062 911.332031 347.054688 C 911.359375 346.8125 911.390625 346.566406 911.417969 346.324219 C 909.875 347.972656 908.398438 349.671875 906.984375 351.398438 M 909 382.15625 C 908.769531 384.65625 908.554688 387.140625 908.34375 389.625 C 909.804688 388.820312 911.265625 387.996094 912.757812 387.191406 C 913.019531 384.578125 913.277344 381.980469 913.554688 379.398438 C 912.015625 380.300781 910.488281 381.222656 909 382.15625 M 909.355469 343.71875 C 908.878906 345.027344 908.417969 346.347656 908.003906 347.699219 C 909.226562 346.316406 910.484375 344.949219 911.789062 343.59375 C 912.019531 342.050781 912.300781 340.539062 912.628906 339.054688 C 911.488281 340.585938 910.398438 342.128906 909.355469 343.71875 M 909.933594 372.121094 C 909.703125 374.574219 909.472656 377.007812 909.242188 379.445312 C 910.75 378.527344 912.289062 377.621094 913.828125 376.703125 C 914.089844 374.121094 914.367188 371.539062 914.644531 368.988281 C 913.054688 370.023438 911.46875 371.074219 909.933594 372.121094 M 910.886719 362.445312 C 910.640625 364.800781 910.40625 367.152344 910.191406 369.492188 C 911.746094 368.441406 913.316406 367.40625 914.9375 366.390625 C 915.195312 363.855469 915.472656 361.324219 915.753906 358.820312 C 914.105469 360.019531 912.472656 361.214844 910.886719 362.445312 M 911.839844 353.316406 C 911.601562 355.511719 911.367188 357.6875 911.148438 359.863281 C 912.75 358.667969 914.382812 357.484375 916.046875 356.304688 C 916.308594 353.882812 916.574219 351.480469 916.855469 349.09375 C 915.128906 350.484375 913.464844 351.894531 911.839844 353.316406 M 912.769531 344.890625 C 912.667969 345.652344 912.570312 346.417969 912.488281 347.195312 C 912.363281 348.382812 912.222656 349.566406 912.097656 350.769531 C 913.742188 349.359375 915.421875 347.984375 917.132812 346.625 C 917.382812 344.347656 917.648438 342.089844 917.898438 339.851562 C 916.128906 341.503906 914.425781 343.1875 912.769531 344.890625 M 914.019531 333.632812 C 913.34375 334.84375 912.703125 336.074219 912.09375 337.332031 C 912.554688 336.738281 912.996094 336.164062 913.472656 335.589844 C 913.640625 334.921875 913.820312 334.269531 914.019531 333.632812 M 914.644531 378.746094 C 914.371094 381.359375 914.109375 383.972656 913.835938 386.621094 C 915.214844 385.882812 916.597656 385.144531 917.980469 384.421875 C 918.300781 381.691406 918.609375 378.964844 918.929688 376.265625 C 917.484375 377.089844 916.058594 377.925781 914.644531 378.746094 M 914.355469 336.820312 C 913.902344 338.5625 913.527344 340.335938 913.207031 342.15625 C 914.8125 340.554688 916.472656 338.96875 918.179688 337.414062 C 918.191406 337.300781 918.207031 337.171875 918.21875 337.054688 L 918.667969 333.191406 C 918.722656 332.621094 918.792969 332.054688 918.878906 331.484375 C 917.304688 333.230469 915.78125 335.011719 914.355469 336.820312 M 915.75 368.269531 C 915.472656 370.851562 915.195312 373.453125 914.921875 376.066406 C 916.347656 375.246094 917.792969 374.40625 919.253906 373.585938 C 919.578125 370.859375 919.914062 368.144531 920.238281 365.449219 C 918.730469 366.382812 917.222656 367.320312 915.75 368.269531 M 916.820312 328.914062 C 916.28125 330.367188 915.769531 331.835938 915.328125 333.316406 C 916.597656 331.820312 917.902344 330.351562 919.269531 328.882812 C 919.546875 327.175781 919.886719 325.484375 920.277344 323.839844 C 919.0625 325.5 917.90625 327.191406 916.820312 328.914062 M 916.875 358.023438 C 916.59375 360.554688 916.320312 363.105469 916.042969 365.6875 C 917.515625 364.738281 919.039062 363.800781 920.5625 362.863281 C 920.886719 360.152344 921.226562 357.457031 921.566406 354.773438 C 919.980469 355.859375 918.410156 356.941406 916.875 358.023438 M 917.988281 348.179688 C 917.710938 350.617188 917.429688 353.050781 917.152344 355.519531 C 918.703125 354.4375 920.273438 353.371094 921.878906 352.304688 C 922.199219 349.640625 922.542969 347.007812 922.867188 344.410156 C 921.203125 345.65625 919.570312 346.902344 917.988281 348.179688 M 919.046875 338.792969 C 918.796875 341.082031 918.53125 343.386719 918.265625 345.726562 C 919.867188 344.464844 921.5 343.234375 923.164062 342.003906 C 923.488281 339.40625 923.8125 336.855469 924.125 334.335938 C 922.398438 335.796875 920.707031 337.285156 919.046875 338.792969 M 920.105469 330.132812 C 919.945312 331.191406 919.800781 332.230469 919.675781 333.300781 L 919.328125 336.371094 C 920.988281 334.898438 922.695312 333.441406 924.421875 331.980469 C 924.730469 329.5625 925.027344 327.15625 925.324219 324.785156 C 923.523438 326.535156 921.773438 328.320312 920.105469 330.132812 M 921.902344 317.796875 C 921.007812 319.453125 920.148438 321.152344 919.351562 322.871094 C 919.921875 322.066406 920.507812 321.277344 921.109375 320.503906 C 921.367188 319.589844 921.628906 318.695312 921.902344 317.796875 M 921.8125 321.753906 C 921.328125 323.644531 920.910156 325.578125 920.542969 327.53125 C 922.179688 325.832031 923.871094 324.148438 925.605469 322.476562 C 925.734375 321.421875 925.859375 320.367188 925.984375 319.3125 C 926.113281 318.222656 926.269531 317.132812 926.429688 316.0625 C 924.824219 317.9375 923.285156 319.832031 921.8125 321.753906 M 924.402344 313.472656 C 923.816406 315.089844 923.261719 316.75 922.757812 318.429688 C 924.074219 316.785156 925.4375 315.171875 926.851562 313.574219 C 927.191406 311.652344 927.59375 309.765625 928.03125 307.910156 C 926.765625 309.734375 925.550781 311.585938 924.402344 313.472656 M 929.851562 301.246094 C 928.742188 303.375 927.695312 305.535156 926.730469 307.722656 C 927.421875 306.722656 928.117188 305.722656 928.847656 304.71875 C 929.164062 303.5625 929.5 302.390625 929.851562 301.246094 M 936.773438 287.683594 C 937.179688 286.085938 937.621094 284.507812 938.0625 282.941406 C 938.734375 281.550781 939.40625 280.179688 940.109375 278.804688 C 939.390625 281.085938 938.703125 283.382812 938.066406 285.730469 C 937.640625 286.371094 937.199219 287.027344 936.773438 287.683594 M 934.613281 297.253906 C 935.042969 295.023438 935.519531 292.828125 936.03125 290.648438 C 936.441406 290.007812 936.867188 289.367188 937.277344 288.726562 C 936.671875 291.136719 936.117188 293.5625 935.628906 296.019531 C 935.296875 296.429688 934.945312 296.84375 934.613281 297.253906 M 933.152344 306.792969 C 933.207031 306.339844 933.265625 305.886719 933.320312 305.445312 C 933.5625 303.496094 933.847656 301.578125 934.1875 299.675781 C 934.503906 299.265625 934.835938 298.855469 935.171875 298.441406 C 934.742188 300.785156 934.363281 303.140625 934.070312 305.546875 C 934.054688 305.660156 934.039062 305.773438 934.027344 305.902344 C 933.722656 306.199219 933.4375 306.496094 933.152344 306.792969 M 931.84375 316.738281 C 932.199219 314.105469 932.542969 311.523438 932.867188 308.988281 C 933.152344 308.691406 933.441406 308.378906 933.742188 308.082031 C 933.402344 310.664062 933.0625 313.296875 932.707031 315.976562 C 932.417969 316.226562 932.128906 316.488281 931.84375 316.738281 M 930.414062 327.15625 C 930.800781 324.375 931.171875 321.644531 931.542969 318.964844 C 931.832031 318.714844 932.117188 318.453125 932.40625 318.1875 C 932.035156 320.917969 931.664062 323.679688 931.261719 326.492188 C 930.988281 326.707031 930.703125 326.9375 930.414062 327.15625 M 928.925781 337.847656 C 929.328125 335.019531 929.710938 332.207031 930.101562 329.445312 C 930.386719 329.230469 930.660156 328.996094 930.945312 328.78125 C 930.5625 331.558594 930.175781 334.386719 929.773438 337.265625 C 929.484375 337.449219 929.195312 337.648438 928.925781 337.847656 M 922.738281 12.726562 C 923.445312 13.21875 924.136719 13.722656 924.84375 14.214844 C 931 23.417969 936.558594 32.847656 941.507812 42.480469 C 960.574219 79.648438 970.582031 119.933594 971.371094 162.402344 C 971.484375 168.507812 971.402344 174.652344 971.128906 180.851562 C 970.105469 204.386719 961.640625 224.609375 952.675781 246.023438 C 948.917969 254.992188 945.09375 264.109375 941.832031 273.570312 C 941.09375 274.945312 940.375 276.320312 939.667969 277.695312 C 943.210938 266.640625 947.636719 256.070312 951.972656 245.714844 C 960.921875 224.363281 969.355469 204.207031 970.382812 180.816406 C 970.65625 174.585938 970.738281 168.457031 970.625 162.464844 C 969.492188 101.363281 949.089844 51.691406 922.738281 12.726562 M 927.40625 348.6875 C 927.636719 347.0625 927.867188 345.4375 928.09375 343.8125 C 928.25 342.609375 928.421875 341.421875 928.597656 340.234375 C 928.867188 340.035156 929.15625 339.835938 929.429688 339.636719 C 929.226562 341.050781 929.027344 342.480469 928.828125 343.925781 C 928.640625 345.324219 928.441406 346.738281 928.238281 348.152344 C 927.953125 348.335938 927.679688 348.519531 927.40625 348.6875 M 925.859375 359.6875 C 926.257812 356.8125 926.660156 353.96875 927.0625 351.15625 C 927.335938 350.972656 927.609375 350.789062 927.898438 350.621094 C 927.496094 353.449219 927.09375 356.308594 926.691406 359.203125 C 926.421875 359.367188 926.132812 359.535156 925.859375 359.6875 M 924.34375 370.769531 C 924.730469 367.910156 925.113281 365.082031 925.5 362.269531 C 925.773438 362.105469 926.0625 361.9375 926.335938 361.769531 C 925.933594 364.597656 925.546875 367.457031 925.164062 370.332031 C 924.890625 370.484375 924.601562 370.636719 924.34375 370.769531 M 922.847656 381.898438 C 923.214844 379.074219 923.601562 376.246094 923.972656 373.449219 C 924.246094 373.300781 924.519531 373.148438 924.792969 372.996094 C 924.40625 375.808594 924.035156 378.652344 923.652344 381.496094 C 923.378906 381.628906 923.121094 381.765625 922.847656 381.898438 M 912.433594 522.875 C 911.59375 477.558594 916.679688 428.9375 922.476562 384.695312 C 922.75 384.558594 923.023438 384.410156 923.28125 384.273438 C 917.46875 428.613281 912.335938 477.429688 913.179688 522.847656 C 913.582031 544.640625 915.367188 565.660156 919.101562 585.023438 L 918.339844 585.039062 L 918.988281 585.027344 C 917.449219 578.199219 916.152344 571.171875 915.09375 563.964844 C 913.535156 550.75 912.695312 536.972656 912.433594 522.875 M 898.777344 -3.148438 L 914.410156 -3.4375 C 915.484375 -2.355469 916.558594 -1.273438 917.617188 -0.191406 C 919.546875 1.652344 921.464844 3.511719 923.347656 5.390625 C 925.132812 7.042969 926.882812 8.695312 928.597656 10.367188 C 930.808594 12.367188 932.988281 14.386719 935.117188 16.40625 C 936.816406 17.914062 938.484375 19.421875 940.117188 20.949219 C 942.03125 22.613281 943.910156 24.28125 945.757812 25.949219 C 947.835938 27.726562 949.878906 29.519531 951.894531 31.3125 C 953.640625 32.789062 955.355469 34.265625 957.050781 35.757812 C 976.3125 51.769531 992.957031 68.382812 1006.851562 85.53125 C 1041.214844 127.929688 1058.949219 173.710938 1059.847656 222.0625 C 1060.089844 235.105469 1059.101562 248.332031 1056.898438 261.710938 C 1046.648438 323.867188 991.761719 350.671875 943.355469 374.324219 C 936.558594 377.640625 929.820312 380.929688 923.28125 384.273438 C 923.410156 383.347656 923.539062 382.421875 923.652344 381.496094 C 929.773438 378.382812 936.058594 375.316406 942.394531 372.21875 C 992.648438 347.671875 1044.605469 322.28125 1054.667969 261.332031 C 1056.871094 247.984375 1057.785156 235.082031 1057.550781 222.558594 C 1056.679688 175.472656 1039.5625 134.136719 1013.300781 98.300781 C 1038.1875 135.214844 1051.066406 174.554688 1051.832031 215.808594 C 1052.066406 228.476562 1051.167969 241.347656 1049.105469 254.367188 C 1039.839844 312.875 989.246094 339.242188 944.613281 362.5 C 937.898438 365.996094 931.246094 369.476562 924.792969 372.996094 C 924.921875 372.105469 925.035156 371.226562 925.164062 370.332031 C 931.203125 367.042969 937.402344 363.800781 943.652344 360.539062 C 990.003906 336.40625 1037.917969 311.433594 1047.007812 254.019531 C 1049.070312 241.011719 1049.921875 228.4375 1049.695312 216.21875 C 1048.792969 167.464844 1030.632812 124.980469 1003.207031 88.453125 C 1029.441406 126.363281 1043.039062 166.925781 1043.832031 209.554688 C 1044.058594 221.867188 1043.21875 234.363281 1041.296875 247.007812 C 1033.003906 301.898438 988.691406 326.691406 945.839844 350.660156 C 939.222656 354.367188 932.65625 358.039062 926.335938 361.769531 C 926.449219 360.910156 926.5625 360.0625 926.691406 359.203125 C 932.613281 355.738281 938.714844 352.316406 944.898438 348.863281 C 987.316406 325.128906 1031.195312 300.585938 1039.34375 246.6875 C 1041.253906 234.089844 1042.03125 221.890625 1041.8125 210.042969 C 1040.878906 159.769531 1021.859375 116.261719 993.527344 79.199219 C 1020.851562 117.949219 1034.988281 159.585938 1035.800781 203.414062 C 1036.023438 215.339844 1035.257812 227.429688 1033.503906 239.664062 C 1026.148438 290.921875 985.914062 315.265625 947.015625 338.808594 C 940.515625 342.738281 934.066406 346.648438 927.898438 350.621094 C 928.011719 349.792969 928.125 348.980469 928.238281 348.152344 C 934.027344 344.460938 940.027344 340.835938 946.074219 337.171875 C 984.609375 313.847656 1024.457031 289.738281 1031.683594 239.375 C 1033.433594 227.152344 1034.15625 215.308594 1033.941406 203.804688 C 1032.976562 151.664062 1012.828125 106.914062 983.367188 69.207031 C 983.550781 69.480469 983.75 69.753906 983.933594 70.023438 C 1012.277344 109.582031 1026.953125 152.277344 1027.789062 197.304688 C 1028 208.824219 1027.308594 220.492188 1025.710938 232.304688 C 1019.261719 279.964844 983.109375 303.859375 948.15625 326.972656 C 941.777344 331.191406 935.464844 335.359375 929.429688 339.636719 C 929.542969 338.839844 929.660156 338.042969 929.773438 337.265625 C 935.410156 333.300781 941.292969 329.417969 947.222656 325.496094 C 981.867188 302.585938 1017.667969 278.90625 1024.019531 232.0625 C 1025.617188 220.265625 1026.265625 208.839844 1026.058594 197.742188 C 1025.058594 143.738281 1003.851562 97.792969 973.4375 59.523438 C 975.035156 61.714844 976.601562 63.90625 978.136719 66.113281 C 1004.988281 105.050781 1018.925781 147.0625 1019.746094 191.359375 C 1019.949219 202.425781 1019.347656 213.621094 1017.917969 224.945312 C 1012.34375 268.988281 980.253906 292.4375 949.203125 315.121094 C 942.960938 319.660156 936.796875 324.167969 930.945312 328.78125 C 931.0625 328.015625 931.164062 327.253906 931.261719 326.492188 C 936.746094 322.222656 942.492188 318.03125 948.285156 313.792969 C 979.0625 291.324219 1010.882812 268.074219 1016.355469 224.746094 C 1017.785156 213.390625 1018.359375 202.390625 1018.160156 191.699219 C 1017.121094 135.570312 994.753906 88.335938 963.308594 49.484375 C 966.453125 53.6875 969.433594 57.925781 972.273438 62.203125 C 997.703125 100.53125 1010.914062 141.894531 1011.71875 185.511719 C 1011.917969 196.074219 1011.386719 206.785156 1010.125 217.601562 C 1005.40625 258.046875 977.332031 281.03125 950.167969 303.238281 C 944.078125 308.230469 938.054688 313.15625 932.40625 318.1875 C 932.503906 317.457031 932.605469 316.707031 932.707031 315.976562 C 938.003906 311.308594 943.613281 306.730469 949.269531 302.085938 C 976.195312 280.046875 1004.046875 257.261719 1008.695312 217.417969 C 1009.953125 206.617188 1010.441406 196.121094 1010.25 185.910156 C 1009.167969 127.484375 985.589844 78.84375 953.226562 39.410156 C 957.933594 45.609375 962.300781 51.898438 966.359375 58.277344 C 990.371094 96.082031 1002.871094 136.875 1003.667969 179.890625 C 1003.851562 189.886719 1003.410156 200.027344 1002.316406 210.257812 C 998.425781 247.121094 974.332031 269.628906 951.035156 291.390625 C 945.070312 296.960938 939.203125 302.4375 933.742188 308.082031 C 933.84375 307.347656 933.925781 306.617188 934.027344 305.902344 C 939.152344 300.671875 944.605469 295.578125 950.15625 290.402344 C 973.277344 268.804688 997.179688 246.464844 1001.03125 210.101562 C 1002.109375 199.871094 1002.523438 189.929688 1002.34375 180.257812 C 1001.21875 119.449219 976.460938 69.402344 943.359375 29.476562 C 949.578125 37.613281 955.246094 45.902344 960.347656 54.351562 C 983.003906 91.710938 994.816406 132.046875 995.605469 174.59375 C 995.777344 183.925781 995.417969 193.367188 994.523438 202.898438 C 991.410156 236.230469 971.25 258.273438 951.773438 279.558594 C 946 285.875 940.324219 292.074219 935.171875 298.441406 C 935.316406 297.628906 935.464844 296.832031 935.628906 296.019531 C 940.4375 290.207031 945.636719 284.519531 950.914062 278.75 C 970.28125 257.597656 990.296875 235.714844 993.371094 202.773438 C 994.261719 193.226562 994.59375 183.933594 994.425781 174.859375 C 993.277344 112.867188 968.476562 62.238281 935.910156 22.273438 C 935.726562 22.132812 935.53125 21.972656 935.347656 21.847656 C 942.335938 31.152344 948.644531 40.675781 954.242188 50.394531 C 975.59375 87.457031 986.734375 127.496094 987.515625 169.703125 C 987.675781 178.226562 987.414062 186.855469 986.730469 195.554688 C 984.347656 225.421875 968.070312 247.003906 952.335938 267.863281 C 947.0625 274.851562 941.917969 281.6875 937.277344 288.726562 C 937.535156 287.71875 937.792969 286.722656 938.066406 285.730469 C 942.34375 279.378906 946.96875 273.261719 951.527344 267.214844 C 967.167969 246.46875 983.351562 225.019531 985.707031 195.460938 C 986.40625 186.742188 986.652344 178.230469 986.5 169.917969 C 985.363281 108.671875 962.179688 58.660156 931.828125 19.238281 C 931.304688 18.859375 930.761719 18.464844 930.234375 18.085938 C 936.796875 27.316406 942.714844 36.785156 947.988281 46.445312 C 968.121094 83.382812 978.660156 123.335938 979.441406 165.460938 C 979.578125 172.960938 979.414062 180.550781 978.921875 188.195312 C 977.253906 214.726562 964.75 235.914062 952.671875 256.414062 C 948.363281 263.722656 944.007812 271.113281 940.109375 278.804688 C 940.664062 277.042969 941.246094 275.296875 941.832031 273.570312 C 945.0625 267.578125 948.503906 261.726562 951.917969 255.941406 C 963.949219 235.539062 976.375 214.433594 978.042969 188.144531 C 978.519531 180.488281 978.6875 172.996094 978.550781 165.671875 C 977.425781 104.796875 955.742188 55.164062 927.488281 16.109375 C 926.617188 15.476562 925.730469 14.84375 924.84375 14.214844 C 924.277344 13.378906 923.726562 12.546875 923.15625 11.714844 C 922.417969 11.179688 921.679688 10.640625 920.953125 10.121094 C 921.554688 10.984375 922.15625 11.847656 922.738281 12.726562 C 914.851562 7.203125 906.835938 1.90625 898.777344 -3.148438 "/>
</g>
</g>
</g>
</g>
</g>
<g clip-path="url(#clip6)" clip-rule="nonzero">
<g clip-path="url(#clip7)" clip-rule="nonzero">
<g clip-path="url(#clip8)" clip-rule="nonzero">
<g clip-path="url(#clip9)" clip-rule="nonzero">
<path style=" stroke:none;fill-rule:nonzero;fill:url(#linear0);" d="M 229.394531 -48.644531 L -108.417969 28.664062 L 27.972656 624.644531 L 365.785156 547.335938 Z M 229.394531 -48.644531 "/>
</g>
</g>
</g>
</g>
</g>
</svg>
